<?xml version="1.0" encoding="UTF-8"?>
<svg xmlns="http://www.w3.org/2000/svg" xmlns:xlink="http://www.w3.org/1999/xlink" width="356.58pt" height="204.45pt" viewBox="0 0 356.58 204.45" version="1.2">
<defs>
<g>
<symbol overflow="visible" id="glyph0-0">
<path style="stroke:none;" d=""/>
</symbol>
<symbol overflow="visible" id="glyph0-1">
<path style="stroke:none;" d="M 3.625 -3.28125 C 3.703125 -3.5625 3.953125 -4.5625 4.703125 -4.5625 C 4.765625 -4.5625 5.03125 -4.5625 5.25 -4.421875 C 4.953125 -4.375 4.734375 -4.09375 4.734375 -3.84375 C 4.734375 -3.671875 4.84375 -3.453125 5.140625 -3.453125 C 5.390625 -3.453125 5.734375 -3.65625 5.734375 -4.09375 C 5.734375 -4.65625 5.09375 -4.8125 4.71875 -4.8125 C 4.09375 -4.8125 3.703125 -4.234375 3.578125 -3.984375 C 3.3125 -4.703125 2.71875 -4.8125 2.40625 -4.8125 C 1.265625 -4.8125 0.65625 -3.40625 0.65625 -3.125 C 0.65625 -3.015625 0.765625 -3.015625 0.78125 -3.015625 C 0.875 -3.015625 0.90625 -3.046875 0.921875 -3.140625 C 1.296875 -4.296875 2.015625 -4.5625 2.375 -4.5625 C 2.59375 -4.5625 2.96875 -4.46875 2.96875 -3.84375 C 2.96875 -3.5 2.78125 -2.765625 2.375 -1.25 C 2.203125 -0.578125 1.828125 -0.125 1.34375 -0.125 C 1.28125 -0.125 1.03125 -0.125 0.8125 -0.265625 C 1.078125 -0.3125 1.3125 -0.546875 1.3125 -0.84375 C 1.3125 -1.140625 1.078125 -1.234375 0.90625 -1.234375 C 0.59375 -1.234375 0.3125 -0.953125 0.3125 -0.59375 C 0.3125 -0.09375 0.859375 0.125 1.34375 0.125 C 2.0625 0.125 2.453125 -0.640625 2.484375 -0.703125 C 2.609375 -0.296875 3 0.125 3.65625 0.125 C 4.78125 0.125 5.390625 -1.28125 5.390625 -1.5625 C 5.390625 -1.65625 5.296875 -1.65625 5.265625 -1.65625 C 5.171875 -1.65625 5.140625 -1.625 5.125 -1.546875 C 4.765625 -0.375 4.03125 -0.125 3.671875 -0.125 C 3.25 -0.125 3.078125 -0.46875 3.078125 -0.84375 C 3.078125 -1.078125 3.140625 -1.3125 3.265625 -1.796875 Z M 3.625 -3.28125 "/>
</symbol>
<symbol overflow="visible" id="glyph0-2">
<path style="stroke:none;" d="M 4.0625 -4.109375 C 3.859375 -4.515625 3.546875 -4.8125 3.0625 -4.8125 C 1.78125 -4.8125 0.4375 -3.203125 0.4375 -1.625 C 0.4375 -0.59375 1.03125 0.125 1.875 0.125 C 2.09375 0.125 2.640625 0.078125 3.296875 -0.703125 C 3.375 -0.234375 3.765625 0.125 4.28125 0.125 C 4.671875 0.125 4.921875 -0.125 5.09375 -0.484375 C 5.28125 -0.875 5.421875 -1.53125 5.421875 -1.5625 C 5.421875 -1.65625 5.3125 -1.65625 5.28125 -1.65625 C 5.171875 -1.65625 5.171875 -1.625 5.140625 -1.46875 C 4.953125 -0.765625 4.75 -0.125 4.3125 -0.125 C 4.015625 -0.125 3.984375 -0.40625 3.984375 -0.625 C 3.984375 -0.859375 4 -0.953125 4.125 -1.421875 C 4.234375 -1.875 4.265625 -1.984375 4.359375 -2.40625 L 4.75 -3.921875 C 4.828125 -4.234375 4.828125 -4.25 4.828125 -4.296875 C 4.828125 -4.484375 4.703125 -4.59375 4.515625 -4.59375 C 4.25 -4.59375 4.09375 -4.34375 4.0625 -4.109375 Z M 3.34375 -1.296875 C 3.296875 -1.09375 3.296875 -1.078125 3.125 -0.890625 C 2.65625 -0.296875 2.203125 -0.125 1.90625 -0.125 C 1.359375 -0.125 1.203125 -0.71875 1.203125 -1.140625 C 1.203125 -1.6875 1.5625 -3.015625 1.8125 -3.53125 C 2.140625 -4.171875 2.625 -4.5625 3.0625 -4.5625 C 3.78125 -4.5625 3.921875 -3.671875 3.921875 -3.609375 C 3.921875 -3.546875 3.90625 -3.484375 3.890625 -3.421875 Z M 3.34375 -1.296875 "/>
</symbol>
<symbol overflow="visible" id="glyph0-3">
<path style="stroke:none;" d="M 5.28125 -4.140625 C 5.328125 -4.296875 5.328125 -4.3125 5.328125 -4.390625 C 5.328125 -4.59375 5.171875 -4.6875 5.015625 -4.6875 C 4.90625 -4.6875 4.734375 -4.625 4.625 -4.453125 C 4.609375 -4.40625 4.53125 -4.0625 4.484375 -3.875 C 4.40625 -3.59375 4.328125 -3.296875 4.265625 -3 L 3.78125 -1.046875 C 3.734375 -0.875 3.265625 -0.125 2.546875 -0.125 C 1.984375 -0.125 1.875 -0.59375 1.875 -1 C 1.875 -1.5 2.0625 -2.171875 2.421875 -3.125 C 2.59375 -3.578125 2.640625 -3.703125 2.640625 -3.921875 C 2.640625 -4.40625 2.296875 -4.8125 1.75 -4.8125 C 0.71875 -4.8125 0.3125 -3.234375 0.3125 -3.125 C 0.3125 -3.015625 0.421875 -3.015625 0.453125 -3.015625 C 0.546875 -3.015625 0.5625 -3.046875 0.625 -3.21875 C 0.90625 -4.234375 1.34375 -4.5625 1.71875 -4.5625 C 1.8125 -4.5625 1.984375 -4.5625 1.984375 -4.21875 C 1.984375 -3.953125 1.875 -3.671875 1.8125 -3.453125 C 1.375 -2.3125 1.171875 -1.6875 1.171875 -1.171875 C 1.171875 -0.203125 1.859375 0.125 2.5 0.125 C 2.921875 0.125 3.296875 -0.0625 3.59375 -0.375 C 3.453125 0.203125 3.328125 0.734375 2.890625 1.3125 C 2.609375 1.671875 2.203125 1.984375 1.703125 1.984375 C 1.546875 1.984375 1.0625 1.953125 0.875 1.53125 C 1.046875 1.53125 1.1875 1.53125 1.34375 1.40625 C 1.453125 1.3125 1.5625 1.15625 1.5625 0.953125 C 1.5625 0.625 1.265625 0.578125 1.15625 0.578125 C 0.90625 0.578125 0.546875 0.75 0.546875 1.28125 C 0.546875 1.828125 1.015625 2.234375 1.703125 2.234375 C 2.8125 2.234375 3.9375 1.234375 4.234375 0.015625 Z M 5.28125 -4.140625 "/>
</symbol>
<symbol overflow="visible" id="glyph1-0">
<path style="stroke:none;" d=""/>
</symbol>
<symbol overflow="visible" id="glyph1-1">
<path style="stroke:none;" d="M 2.5 -5.0625 C 2.5 -5.28125 2.484375 -5.28125 2.265625 -5.28125 C 1.9375 -4.96875 1.515625 -4.78125 0.765625 -4.78125 L 0.765625 -4.515625 C 0.984375 -4.515625 1.40625 -4.515625 1.875 -4.734375 L 1.875 -0.65625 C 1.875 -0.359375 1.84375 -0.265625 1.09375 -0.265625 L 0.8125 -0.265625 L 0.8125 0 C 1.140625 -0.03125 1.828125 -0.03125 2.171875 -0.03125 C 2.53125 -0.03125 3.234375 -0.03125 3.5625 0 L 3.5625 -0.265625 L 3.28125 -0.265625 C 2.515625 -0.265625 2.5 -0.359375 2.5 -0.65625 Z M 2.5 -5.0625 "/>
</symbol>
<symbol overflow="visible" id="glyph1-2">
<path style="stroke:none;" d="M 2.25 -1.625 C 2.375 -1.734375 2.703125 -2 2.828125 -2.109375 C 3.328125 -2.5625 3.796875 -3 3.796875 -3.734375 C 3.796875 -4.671875 3 -5.28125 2 -5.28125 C 1.046875 -5.28125 0.421875 -4.5625 0.421875 -3.859375 C 0.421875 -3.46875 0.734375 -3.40625 0.84375 -3.40625 C 1.015625 -3.40625 1.25 -3.53125 1.25 -3.828125 C 1.25 -4.25 0.859375 -4.25 0.765625 -4.25 C 1 -4.828125 1.53125 -5.03125 1.921875 -5.03125 C 2.65625 -5.03125 3.03125 -4.390625 3.03125 -3.734375 C 3.03125 -2.90625 2.453125 -2.296875 1.515625 -1.34375 L 0.515625 -0.296875 C 0.421875 -0.21875 0.421875 -0.203125 0.421875 0 L 3.5625 0 L 3.796875 -1.421875 L 3.546875 -1.421875 C 3.515625 -1.265625 3.453125 -0.859375 3.359375 -0.71875 C 3.3125 -0.65625 2.71875 -0.65625 2.578125 -0.65625 L 1.171875 -0.65625 Z M 2.25 -1.625 "/>
</symbol>
<symbol overflow="visible" id="glyph1-3">
<path style="stroke:none;" d="M 2.015625 -2.65625 C 2.640625 -2.65625 3.03125 -2.1875 3.03125 -1.359375 C 3.03125 -0.359375 2.46875 -0.078125 2.046875 -0.078125 C 1.609375 -0.078125 1.015625 -0.234375 0.734375 -0.65625 C 1.03125 -0.65625 1.21875 -0.828125 1.21875 -1.09375 C 1.21875 -1.359375 1.046875 -1.53125 0.78125 -1.53125 C 0.578125 -1.53125 0.34375 -1.40625 0.34375 -1.078125 C 0.34375 -0.328125 1.15625 0.171875 2.0625 0.171875 C 3.125 0.171875 3.859375 -0.5625 3.859375 -1.359375 C 3.859375 -2.015625 3.34375 -2.625 2.53125 -2.796875 C 3.15625 -3.015625 3.625 -3.5625 3.625 -4.203125 C 3.625 -4.828125 2.90625 -5.28125 2.078125 -5.28125 C 1.234375 -5.28125 0.59375 -4.828125 0.59375 -4.21875 C 0.59375 -3.921875 0.78125 -3.796875 1 -3.796875 C 1.234375 -3.796875 1.40625 -3.984375 1.40625 -4.203125 C 1.40625 -4.5 1.140625 -4.609375 0.96875 -4.625 C 1.296875 -5.0625 1.921875 -5.078125 2.0625 -5.078125 C 2.265625 -5.078125 2.875 -5.015625 2.875 -4.203125 C 2.875 -3.640625 2.640625 -3.3125 2.53125 -3.1875 C 2.296875 -2.9375 2.109375 -2.921875 1.625 -2.890625 C 1.46875 -2.875 1.40625 -2.875 1.40625 -2.765625 C 1.40625 -2.65625 1.484375 -2.65625 1.609375 -2.65625 Z M 2.015625 -2.65625 "/>
</symbol>
<symbol overflow="visible" id="glyph1-4">
<path style="stroke:none;" d="M 3.140625 -5.140625 C 3.140625 -5.3125 3.140625 -5.375 2.96875 -5.375 C 2.859375 -5.375 2.859375 -5.359375 2.78125 -5.25 L 0.234375 -1.5625 L 0.234375 -1.296875 L 2.484375 -1.296875 L 2.484375 -0.640625 C 2.484375 -0.34375 2.453125 -0.265625 1.84375 -0.265625 L 1.65625 -0.265625 L 1.65625 0 C 2.34375 -0.03125 2.359375 -0.03125 2.8125 -0.03125 C 3.265625 -0.03125 3.28125 -0.03125 3.953125 0 L 3.953125 -0.265625 L 3.765625 -0.265625 C 3.15625 -0.265625 3.140625 -0.34375 3.140625 -0.640625 L 3.140625 -1.296875 L 3.984375 -1.296875 L 3.984375 -1.5625 L 3.140625 -1.5625 Z M 2.53125 -4.5 L 2.53125 -1.5625 L 0.515625 -1.5625 Z M 2.53125 -4.5 "/>
</symbol>
<symbol overflow="visible" id="glyph1-5">
<path style="stroke:none;" d="M 2.640625 1.984375 C 2.71875 1.984375 2.8125 1.984375 2.8125 1.890625 C 2.8125 1.859375 2.796875 1.859375 2.703125 1.75 C 1.609375 0.71875 1.34375 -0.75 1.34375 -1.984375 C 1.34375 -4.28125 2.28125 -5.359375 2.6875 -5.71875 C 2.796875 -5.828125 2.8125 -5.828125 2.8125 -5.875 C 2.8125 -5.90625 2.78125 -5.96875 2.703125 -5.96875 C 2.5625 -5.96875 2.171875 -5.5625 2.109375 -5.484375 C 1.046875 -4.375 0.8125 -2.9375 0.8125 -1.984375 C 0.8125 -0.203125 1.5625 1.21875 2.640625 1.984375 Z M 2.640625 1.984375 "/>
</symbol>
<symbol overflow="visible" id="glyph1-6">
<path style="stroke:none;" d="M 2.453125 -1.984375 C 2.453125 -2.75 2.328125 -3.65625 1.84375 -4.59375 C 1.453125 -5.328125 0.71875 -5.96875 0.578125 -5.96875 C 0.5 -5.96875 0.484375 -5.90625 0.484375 -5.875 C 0.484375 -5.84375 0.484375 -5.828125 0.578125 -5.71875 C 1.6875 -4.671875 1.9375 -3.21875 1.9375 -1.984375 C 1.9375 0.296875 1 1.375 0.59375 1.734375 C 0.484375 1.84375 0.484375 1.859375 0.484375 1.890625 C 0.484375 1.9375 0.5 1.984375 0.578125 1.984375 C 0.703125 1.984375 1.109375 1.578125 1.171875 1.515625 C 2.234375 0.390625 2.453125 -1.03125 2.453125 -1.984375 Z M 2.453125 -1.984375 "/>
</symbol>
<symbol overflow="visible" id="glyph2-0">
<path style="stroke:none;" d=""/>
</symbol>
<symbol overflow="visible" id="glyph2-1">
<path style="stroke:none;" d="M 2.71875 -7.546875 L 1.265625 -6.0625 L 1.453125 -5.875 L 2.71875 -6.984375 L 3.96875 -5.875 L 4.171875 -6.0625 Z M 2.71875 -7.546875 "/>
</symbol>
<symbol overflow="visible" id="glyph3-0">
<path style="stroke:none;" d=""/>
</symbol>
<symbol overflow="visible" id="glyph3-1">
<path style="stroke:none;" d="M 5.125 -2.328125 C 5.125 -3.71875 4.03125 -4.875 2.71875 -4.875 C 1.359375 -4.875 0.296875 -3.6875 0.296875 -2.328125 C 0.296875 -0.921875 1.4375 0.125 2.703125 0.125 C 4.03125 0.125 5.125 -0.953125 5.125 -2.328125 Z M 4.21875 -2.421875 C 4.21875 -2.015625 4.21875 -1.4375 3.984375 -0.953125 C 3.734375 -0.46875 3.265625 -0.15625 2.71875 -0.15625 C 2.25 -0.15625 1.765625 -0.375 1.484375 -0.875 C 1.203125 -1.359375 1.203125 -2.015625 1.203125 -2.421875 C 1.203125 -2.84375 1.203125 -3.421875 1.46875 -3.90625 C 1.765625 -4.40625 2.265625 -4.625 2.703125 -4.625 C 3.1875 -4.625 3.65625 -4.390625 3.9375 -3.921875 C 4.21875 -3.453125 4.21875 -2.828125 4.21875 -2.421875 Z M 4.21875 -2.421875 "/>
</symbol>
<symbol overflow="visible" id="glyph3-2">
<path style="stroke:none;" d="M 5.8125 0 L 5.8125 -0.34375 C 5.0625 -0.34375 4.96875 -0.40625 4.96875 -0.953125 L 4.96875 -4.8125 L 3.375 -4.6875 L 3.375 -4.34375 C 4.125 -4.34375 4.21875 -4.28125 4.21875 -3.734375 L 4.21875 -1.8125 C 4.21875 -0.859375 3.703125 -0.125 2.90625 -0.125 C 1.984375 -0.125 1.953125 -0.625 1.953125 -1.203125 L 1.953125 -4.8125 L 0.34375 -4.6875 L 0.34375 -4.34375 C 1.203125 -4.34375 1.203125 -4.3125 1.203125 -3.34375 L 1.203125 -1.71875 C 1.203125 -0.875 1.203125 0.125 2.84375 0.125 C 3.453125 0.125 3.9375 -0.1875 4.25 -0.859375 L 4.25 0.125 Z M 5.8125 0 "/>
</symbol>
<symbol overflow="visible" id="glyph3-3">
<path style="stroke:none;" d="M 3.609375 -1.34375 L 3.609375 -1.96875 L 3.34375 -1.96875 L 3.34375 -1.375 C 3.34375 -0.5625 3.015625 -0.15625 2.609375 -0.15625 C 1.875 -0.15625 1.875 -1.140625 1.875 -1.328125 L 1.875 -4.34375 L 3.4375 -4.34375 L 3.4375 -4.6875 L 1.875 -4.6875 L 1.875 -6.6875 L 1.609375 -6.6875 C 1.59375 -5.796875 1.265625 -4.625 0.203125 -4.59375 L 0.203125 -4.34375 L 1.125 -4.34375 L 1.125 -1.34375 C 1.125 -0.015625 2.140625 0.125 2.53125 0.125 C 3.3125 0.125 3.609375 -0.65625 3.609375 -1.34375 Z M 3.609375 -1.34375 "/>
</symbol>
<symbol overflow="visible" id="glyph3-4">
<path style="stroke:none;" d="M 5.671875 -2.34375 C 5.671875 -3.734375 4.609375 -4.8125 3.390625 -4.8125 C 2.546875 -4.8125 2.09375 -4.328125 1.875 -4.09375 L 1.875 -4.8125 L 0.296875 -4.6875 L 0.296875 -4.34375 C 1.078125 -4.34375 1.15625 -4.28125 1.15625 -3.8125 L 1.15625 1.28125 C 1.15625 1.765625 1.03125 1.765625 0.296875 1.765625 L 0.296875 2.109375 L 1.515625 2.078125 L 2.75 2.109375 L 2.75 1.765625 C 2.015625 1.765625 1.90625 1.765625 1.90625 1.28125 L 1.90625 -0.640625 C 1.953125 -0.46875 2.421875 0.125 3.234375 0.125 C 4.53125 0.125 5.671875 -0.953125 5.671875 -2.34375 Z M 4.765625 -2.34375 C 4.765625 -1.03125 4 -0.125 3.203125 -0.125 C 2.765625 -0.125 2.34375 -0.34375 2.0625 -0.78125 C 1.90625 -1.015625 1.90625 -1.015625 1.90625 -1.234375 L 1.90625 -3.671875 C 2.21875 -4.21875 2.75 -4.53125 3.3125 -4.53125 C 4.09375 -4.53125 4.765625 -3.578125 4.765625 -2.34375 Z M 4.765625 -2.34375 "/>
</symbol>
<symbol overflow="visible" id="glyph4-0">
<path style="stroke:none;" d=""/>
</symbol>
<symbol overflow="visible" id="glyph4-1">
<path style="stroke:none;" d="M 10.765625 -6.8125 C 11.046875 -7.28125 11.296875 -7.71875 12.015625 -7.796875 C 12.125 -7.8125 12.234375 -7.828125 12.234375 -8.015625 C 12.234375 -8.140625 12.125 -8.140625 12.09375 -8.140625 C 12.0625 -8.140625 11.984375 -8.125 11.1875 -8.125 C 10.84375 -8.125 10.46875 -8.140625 10.125 -8.140625 C 10.046875 -8.140625 9.90625 -8.140625 9.90625 -7.921875 C 9.90625 -7.8125 10 -7.796875 10.078125 -7.796875 C 10.3125 -7.78125 10.6875 -7.71875 10.6875 -7.34375 C 10.6875 -7.1875 10.640625 -7.109375 10.53125 -6.90625 L 7.265625 -1.203125 L 6.84375 -7.421875 C 6.84375 -7.5625 6.96875 -7.78125 7.640625 -7.796875 C 7.796875 -7.796875 7.921875 -7.796875 7.921875 -8.015625 C 7.921875 -8.140625 7.796875 -8.140625 7.734375 -8.140625 C 7.3125 -8.140625 6.875 -8.125 6.453125 -8.125 L 5.828125 -8.125 C 5.65625 -8.125 5.4375 -8.140625 5.25 -8.140625 C 5.1875 -8.140625 5.046875 -8.140625 5.046875 -7.921875 C 5.046875 -7.796875 5.125 -7.796875 5.328125 -7.796875 C 5.875 -7.796875 5.875 -7.78125 5.921875 -7.0625 L 5.96875 -6.625 L 2.875 -1.203125 L 2.4375 -7.359375 C 2.4375 -7.484375 2.4375 -7.78125 3.25 -7.796875 C 3.375 -7.796875 3.5 -7.796875 3.5 -8.015625 C 3.5 -8.140625 3.390625 -8.140625 3.328125 -8.140625 C 2.90625 -8.140625 2.46875 -8.125 2.03125 -8.125 L 1.421875 -8.125 C 1.234375 -8.125 1.03125 -8.140625 0.84375 -8.140625 C 0.78125 -8.140625 0.625 -8.140625 0.625 -7.921875 C 0.625 -7.796875 0.734375 -7.796875 0.890625 -7.796875 C 1.453125 -7.796875 1.46875 -7.71875 1.484375 -7.34375 L 2.015625 -0.03125 C 2.03125 0.171875 2.03125 0.25 2.1875 0.25 C 2.296875 0.25 2.328125 0.203125 2.4375 0.03125 L 5.984375 -6.1875 L 6.421875 -0.03125 C 6.4375 0.171875 6.453125 0.25 6.59375 0.25 C 6.71875 0.25 6.75 0.1875 6.84375 0.03125 Z M 10.765625 -6.8125 "/>
</symbol>
<symbol overflow="visible" id="glyph5-0">
<path style="stroke:none;" d=""/>
</symbol>
<symbol overflow="visible" id="glyph5-1">
<path style="stroke:none;" d="M 4.375 0 L 4.375 -0.515625 L 3.140625 -0.515625 L 3.140625 -6.953125 L 4.375 -6.953125 L 4.375 -7.453125 C 3.9375 -7.421875 2.875 -7.421875 2.375 -7.421875 C 1.875 -7.421875 0.8125 -7.421875 0.359375 -7.453125 L 0.359375 -6.953125 L 1.59375 -6.953125 L 1.59375 -0.515625 L 0.359375 -0.515625 L 0.359375 0 C 0.8125 -0.03125 1.875 -0.03125 2.375 -0.03125 C 2.875 -0.03125 3.9375 -0.03125 4.375 0 Z M 4.375 0 "/>
</symbol>
<symbol overflow="visible" id="glyph5-2">
<path style="stroke:none;" d="M 6.6875 0 L 6.6875 -0.515625 L 5.9375 -0.515625 L 5.9375 -3.328125 C 5.9375 -4.46875 5.34375 -4.890625 4.265625 -4.890625 C 3.21875 -4.890625 2.640625 -4.28125 2.359375 -3.71875 L 2.359375 -4.890625 L 0.484375 -4.8125 L 0.484375 -4.296875 C 1.15625 -4.296875 1.234375 -4.296875 1.234375 -3.875 L 1.234375 -0.515625 L 0.484375 -0.515625 L 0.484375 0 L 1.859375 -0.03125 L 3.234375 0 L 3.234375 -0.515625 L 2.484375 -0.515625 L 2.484375 -2.78125 C 2.484375 -3.96875 3.421875 -4.5 4.09375 -4.5 C 4.46875 -4.5 4.703125 -4.28125 4.703125 -3.453125 L 4.703125 -0.515625 L 3.953125 -0.515625 L 3.953125 0 L 5.3125 -0.03125 Z M 6.6875 0 "/>
</symbol>
<symbol overflow="visible" id="glyph5-3">
<path style="stroke:none;" d="M 6.53125 -2.421875 C 6.53125 -3.875 5.53125 -4.890625 3.96875 -4.890625 C 3.15625 -4.890625 2.578125 -4.5625 2.328125 -4.359375 L 2.328125 -4.890625 L 0.40625 -4.8125 L 0.40625 -4.296875 C 1.078125 -4.296875 1.15625 -4.296875 1.15625 -3.875 L 1.15625 1.59375 L 0.40625 1.59375 L 0.40625 2.109375 L 1.765625 2.078125 L 3.140625 2.109375 L 3.140625 1.59375 L 2.390625 1.59375 L 2.390625 -0.421875 C 2.859375 -0.046875 3.34375 0.0625 3.78125 0.0625 C 5.421875 0.0625 6.53125 -0.90625 6.53125 -2.421875 Z M 5.140625 -2.421875 C 5.140625 -0.890625 4.375 -0.328125 3.671875 -0.328125 C 3.515625 -0.328125 3 -0.328125 2.515625 -0.90625 C 2.390625 -1.0625 2.390625 -1.0625 2.390625 -1.265625 L 2.390625 -3.578125 C 2.390625 -3.78125 2.40625 -3.796875 2.5625 -3.953125 C 2.984375 -4.390625 3.5625 -4.453125 3.796875 -4.453125 C 4.53125 -4.453125 5.140625 -3.796875 5.140625 -2.421875 Z M 5.140625 -2.421875 "/>
</symbol>
<symbol overflow="visible" id="glyph5-4">
<path style="stroke:none;" d="M 6.6875 0 L 6.6875 -0.515625 C 6.015625 -0.515625 5.9375 -0.515625 5.9375 -0.9375 L 5.9375 -4.890625 L 3.953125 -4.8125 L 3.953125 -4.296875 C 4.625 -4.296875 4.703125 -4.296875 4.703125 -3.875 L 4.703125 -1.796875 C 4.703125 -0.90625 4.140625 -0.328125 3.34375 -0.328125 C 2.515625 -0.328125 2.484375 -0.59375 2.484375 -1.1875 L 2.484375 -4.890625 L 0.484375 -4.8125 L 0.484375 -4.296875 C 1.15625 -4.296875 1.234375 -4.296875 1.234375 -3.875 L 1.234375 -1.34375 C 1.234375 -0.171875 2.125 0.0625 3.203125 0.0625 C 3.484375 0.0625 4.265625 0.0625 4.765625 -0.78125 L 4.765625 0.0625 Z M 6.6875 0 "/>
</symbol>
<symbol overflow="visible" id="glyph5-5">
<path style="stroke:none;" d="M 4.15625 -1.34375 L 4.15625 -1.921875 L 3.640625 -1.921875 L 3.640625 -1.375 C 3.640625 -0.625 3.296875 -0.375 2.984375 -0.375 C 2.359375 -0.375 2.359375 -1.0625 2.359375 -1.3125 L 2.359375 -4.3125 L 3.953125 -4.3125 L 3.953125 -4.828125 L 2.359375 -4.828125 L 2.359375 -6.90625 L 1.84375 -6.90625 C 1.84375 -5.8125 1.3125 -4.734375 0.234375 -4.703125 L 0.234375 -4.3125 L 1.125 -4.3125 L 1.125 -1.34375 C 1.125 -0.171875 2.0625 0.0625 2.84375 0.0625 C 3.671875 0.0625 4.15625 -0.546875 4.15625 -1.34375 Z M 4.15625 -1.34375 "/>
</symbol>
<symbol overflow="visible" id="glyph5-6">
<path style="stroke:none;" d="M 7 -2.984375 L 6.484375 -2.984375 C 6.390625 -2.234375 6.203125 -0.515625 4.265625 -0.515625 L 3.140625 -0.515625 L 3.140625 -6.953125 L 4.609375 -6.953125 L 4.609375 -7.453125 C 4.125 -7.421875 2.953125 -7.421875 2.421875 -7.421875 C 1.9375 -7.421875 0.84375 -7.421875 0.421875 -7.453125 L 0.421875 -6.953125 L 1.59375 -6.953125 L 1.59375 -0.515625 L 0.421875 -0.515625 L 0.421875 0 L 6.65625 0 Z M 7 -2.984375 "/>
</symbol>
<symbol overflow="visible" id="glyph5-7">
<path style="stroke:none;" d="M 6.015625 -0.265625 C 6.015625 -0.515625 5.875 -0.515625 5.734375 -0.515625 C 5.0625 -0.515625 5.0625 -0.65625 5.0625 -0.90625 L 5.0625 -3.25 C 5.0625 -4.21875 4.296875 -4.921875 2.671875 -4.921875 C 2.0625 -4.921875 0.734375 -4.890625 0.734375 -3.921875 C 0.734375 -3.453125 1.109375 -3.234375 1.40625 -3.234375 C 1.734375 -3.234375 2.09375 -3.46875 2.09375 -3.921875 C 2.09375 -4.25 1.875 -4.4375 1.84375 -4.453125 C 2.15625 -4.53125 2.5 -4.53125 2.625 -4.53125 C 3.453125 -4.53125 3.828125 -4.078125 3.828125 -3.25 L 3.828125 -2.875 C 3.0625 -2.84375 0.296875 -2.75 0.296875 -1.171875 C 0.296875 -0.125 1.640625 0.0625 2.390625 0.0625 C 3.265625 0.0625 3.78125 -0.375 4.015625 -0.84375 C 4.015625 -0.5 4.015625 0 5.140625 0 L 5.671875 0 C 5.890625 0 6.015625 0 6.015625 -0.265625 Z M 3.828125 -1.515625 C 3.828125 -0.46875 2.828125 -0.328125 2.5625 -0.328125 C 2 -0.328125 1.5625 -0.703125 1.5625 -1.1875 C 1.5625 -2.359375 3.28125 -2.515625 3.828125 -2.546875 Z M 3.828125 -1.515625 "/>
</symbol>
<symbol overflow="visible" id="glyph5-8">
<path style="stroke:none;" d="M 6.3125 -4.3125 L 6.3125 -4.828125 C 6.046875 -4.8125 5.71875 -4.796875 5.453125 -4.796875 L 4.453125 -4.828125 L 4.453125 -4.3125 C 4.453125 -4.3125 4.96875 -4.3125 4.96875 -4.1875 L 4.921875 -4.0625 L 3.671875 -1.375 L 2.28125 -4.3125 L 2.875 -4.3125 L 2.875 -4.828125 L 1.515625 -4.796875 L 0.28125 -4.828125 L 0.28125 -4.3125 L 0.984375 -4.3125 L 3.015625 0 L 2.765625 0.515625 C 2.515625 1.046875 2.171875 1.78125 1.40625 1.78125 C 1.25 1.78125 1.234375 1.765625 1.140625 1.734375 C 1.234375 1.703125 1.484375 1.546875 1.484375 1.15625 C 1.484375 0.8125 1.234375 0.546875 0.859375 0.546875 C 0.546875 0.546875 0.234375 0.75 0.234375 1.171875 C 0.234375 1.734375 0.75 2.171875 1.40625 2.171875 C 2.234375 2.171875 2.875 1.5 3.171875 0.875 L 5.5 -4.09375 C 5.578125 -4.234375 5.609375 -4.3125 6.3125 -4.3125 Z M 6.3125 -4.3125 "/>
</symbol>
<symbol overflow="visible" id="glyph5-9">
<path style="stroke:none;" d="M 5.375 -1.265625 C 5.375 -1.46875 5.171875 -1.46875 5.109375 -1.46875 C 4.921875 -1.46875 4.90625 -1.40625 4.84375 -1.234375 C 4.609375 -0.71875 3.984375 -0.375 3.28125 -0.375 C 1.75 -0.375 1.734375 -1.8125 1.734375 -2.375 L 5.03125 -2.375 C 5.265625 -2.375 5.375 -2.375 5.375 -2.671875 C 5.375 -3 5.3125 -3.796875 4.765625 -4.34375 C 4.359375 -4.734375 3.78125 -4.921875 3.03125 -4.921875 C 1.296875 -4.921875 0.34375 -3.8125 0.34375 -2.453125 C 0.34375 -0.984375 1.4375 0.0625 3.1875 0.0625 C 4.90625 0.0625 5.375 -1.09375 5.375 -1.265625 Z M 4.34375 -2.734375 L 1.734375 -2.734375 C 1.765625 -3.15625 1.765625 -3.609375 2 -3.96875 C 2.28125 -4.40625 2.71875 -4.53125 3.03125 -4.53125 C 4.3125 -4.53125 4.328125 -3.109375 4.34375 -2.734375 Z M 4.34375 -2.734375 "/>
</symbol>
<symbol overflow="visible" id="glyph5-10">
<path style="stroke:none;" d="M 4.8125 -4 C 4.8125 -4.578125 4.21875 -4.890625 3.65625 -4.890625 C 2.890625 -4.890625 2.453125 -4.34375 2.203125 -3.671875 L 2.203125 -4.890625 L 0.40625 -4.8125 L 0.40625 -4.296875 C 1.078125 -4.296875 1.15625 -4.296875 1.15625 -3.875 L 1.15625 -0.515625 L 0.40625 -0.515625 L 0.40625 0 L 1.765625 -0.03125 C 2.1875 -0.03125 2.875 -0.03125 3.265625 0 L 3.265625 -0.515625 L 2.328125 -0.515625 L 2.328125 -2.421875 C 2.328125 -3.171875 2.59375 -4.5 3.6875 -4.5 C 3.6875 -4.5 3.484375 -4.3125 3.484375 -4 C 3.484375 -3.5625 3.828125 -3.34375 4.140625 -3.34375 C 4.453125 -3.34375 4.8125 -3.5625 4.8125 -4 Z M 4.8125 -4 "/>
</symbol>
<symbol overflow="visible" id="glyph5-11">
<path style="stroke:none;" d="M 9.359375 0 L 9.359375 -0.515625 L 8.171875 -0.515625 L 8.171875 -6.953125 L 9.359375 -6.953125 L 9.359375 -7.453125 C 8.9375 -7.421875 7.875 -7.421875 7.40625 -7.421875 C 6.9375 -7.421875 5.875 -7.421875 5.453125 -7.453125 L 5.453125 -6.953125 L 6.640625 -6.953125 L 6.640625 -4.125 L 3.140625 -4.125 L 3.140625 -6.953125 L 4.3125 -6.953125 L 4.3125 -7.453125 C 3.90625 -7.421875 2.84375 -7.421875 2.375 -7.421875 C 1.90625 -7.421875 0.84375 -7.421875 0.421875 -7.453125 L 0.421875 -6.953125 L 1.59375 -6.953125 L 1.59375 -0.515625 L 0.421875 -0.515625 L 0.421875 0 C 0.84375 -0.03125 1.90625 -0.03125 2.375 -0.03125 C 2.84375 -0.03125 3.90625 -0.03125 4.3125 0 L 4.3125 -0.515625 L 3.140625 -0.515625 L 3.140625 -3.625 L 6.640625 -3.625 L 6.640625 -0.515625 L 5.453125 -0.515625 L 5.453125 0 C 5.875 -0.03125 6.9375 -0.03125 7.40625 -0.03125 C 7.875 -0.03125 8.9375 -0.03125 9.359375 0 Z M 9.359375 0 "/>
</symbol>
<symbol overflow="visible" id="glyph5-12">
<path style="stroke:none;" d="M 3.109375 0 L 3.109375 -0.515625 L 2.4375 -0.515625 L 2.4375 -4.890625 L 0.546875 -4.8125 L 0.546875 -4.296875 C 1.1875 -4.296875 1.265625 -4.296875 1.265625 -3.875 L 1.265625 -0.515625 L 0.515625 -0.515625 L 0.515625 0 L 1.84375 -0.03125 Z M 2.59375 -6.59375 C 2.59375 -7.0625 2.203125 -7.453125 1.734375 -7.453125 C 1.265625 -7.453125 0.890625 -7.0625 0.890625 -6.59375 C 0.890625 -6.140625 1.265625 -5.75 1.734375 -5.75 C 2.203125 -5.75 2.59375 -6.140625 2.59375 -6.59375 Z M 2.59375 -6.59375 "/>
</symbol>
<symbol overflow="visible" id="glyph5-13">
<path style="stroke:none;" d="M 6.53125 0 L 6.53125 -0.515625 C 5.859375 -0.515625 5.78125 -0.515625 5.78125 -0.9375 L 5.78125 -7.546875 L 3.859375 -7.453125 L 3.859375 -6.953125 C 4.53125 -6.953125 4.609375 -6.953125 4.609375 -6.53125 L 4.609375 -4.40625 C 4.0625 -4.828125 3.5 -4.890625 3.140625 -4.890625 C 1.5625 -4.890625 0.40625 -3.9375 0.40625 -2.40625 C 0.40625 -0.96875 1.40625 0.0625 3.015625 0.0625 C 3.6875 0.0625 4.203125 -0.203125 4.546875 -0.46875 L 4.546875 0.0625 Z M 4.546875 -1.125 C 4.40625 -0.921875 3.953125 -0.328125 3.125 -0.328125 C 1.8125 -0.328125 1.8125 -1.640625 1.8125 -2.40625 C 1.8125 -2.921875 1.8125 -3.515625 2.09375 -3.9375 C 2.40625 -4.390625 2.921875 -4.5 3.25 -4.5 C 3.875 -4.5 4.3125 -4.15625 4.546875 -3.84375 Z M 4.546875 -1.125 "/>
</symbol>
<symbol overflow="visible" id="glyph5-14">
<path style="stroke:none;" d="M 8.6875 -3.6875 C 8.6875 -6.03125 7.109375 -7.578125 4.703125 -7.578125 C 2.203125 -7.578125 0.703125 -5.96875 0.703125 -3.6875 C 0.703125 -1.4375 2.21875 0.125 4.6875 0.125 C 7.1875 0.125 8.6875 -1.453125 8.6875 -3.6875 Z M 7.03125 -3.84375 C 7.03125 -3.09375 6.984375 -2.125 6.53125 -1.375 C 6.03125 -0.578125 5.28125 -0.34375 4.6875 -0.34375 C 4.046875 -0.34375 3.25 -0.640625 2.8125 -1.46875 C 2.453125 -2.140625 2.359375 -2.921875 2.359375 -3.84375 C 2.359375 -4.546875 2.390625 -5.46875 2.875 -6.203125 C 3.3125 -6.875 4.046875 -7.140625 4.6875 -7.140625 C 5.390625 -7.140625 6.140625 -6.84375 6.5625 -6.125 C 6.984375 -5.421875 7.03125 -4.59375 7.03125 -3.84375 Z M 7.03125 -3.84375 "/>
</symbol>
<symbol overflow="visible" id="glyph6-0">
<path style="stroke:none;" d=""/>
</symbol>
<symbol overflow="visible" id="glyph6-1">
<path style="stroke:none;" d="M 7.171875 -4.875 C 7.171875 -5.96875 6.1875 -6.8125 4.53125 -6.8125 L 0.390625 -6.8125 L 0.390625 -6.34375 L 1.453125 -6.34375 L 1.453125 -0.46875 L 0.390625 -0.46875 L 0.390625 0 C 0.765625 -0.03125 1.734375 -0.03125 2.171875 -0.03125 C 2.59375 -0.03125 3.5625 -0.03125 3.9375 0 L 3.9375 -0.46875 L 2.875 -0.46875 L 2.875 -3 L 4.625 -3 C 6.015625 -3 7.171875 -3.71875 7.171875 -4.875 Z M 5.640625 -4.875 C 5.640625 -4.171875 5.640625 -3.40625 4.140625 -3.40625 L 2.8125 -3.40625 L 2.8125 -6.34375 L 4.15625 -6.34375 C 5.640625 -6.34375 5.640625 -5.59375 5.640625 -4.875 Z M 5.640625 -4.875 "/>
</symbol>
<symbol overflow="visible" id="glyph6-2">
<path style="stroke:none;" d="M 4.390625 -3.65625 C 4.390625 -4.1875 3.859375 -4.46875 3.34375 -4.46875 C 2.640625 -4.46875 2.25 -3.96875 2.015625 -3.34375 L 2.015625 -4.46875 L 0.375 -4.390625 L 0.375 -3.921875 C 0.984375 -3.921875 1.046875 -3.921875 1.046875 -3.53125 L 1.046875 -0.46875 L 0.375 -0.46875 L 0.375 0 L 1.625 -0.03125 C 2 -0.03125 2.640625 -0.03125 2.984375 0 L 2.984375 -0.46875 L 2.125 -0.46875 L 2.125 -2.203125 C 2.125 -2.90625 2.375 -4.109375 3.375 -4.109375 C 3.375 -4.109375 3.1875 -3.9375 3.1875 -3.65625 C 3.1875 -3.25 3.5 -3.046875 3.78125 -3.046875 C 4.078125 -3.046875 4.390625 -3.265625 4.390625 -3.65625 Z M 4.390625 -3.65625 "/>
</symbol>
<symbol overflow="visible" id="glyph6-3">
<path style="stroke:none;" d="M 4.90625 -1.15625 C 4.90625 -1.34375 4.71875 -1.34375 4.671875 -1.34375 C 4.5 -1.34375 4.484375 -1.296875 4.421875 -1.140625 C 4.21875 -0.65625 3.640625 -0.34375 3 -0.34375 C 1.59375 -0.34375 1.59375 -1.65625 1.59375 -2.171875 L 4.59375 -2.171875 C 4.8125 -2.171875 4.90625 -2.171875 4.90625 -2.4375 C 4.90625 -2.75 4.84375 -3.46875 4.359375 -3.96875 C 3.984375 -4.328125 3.453125 -4.5 2.765625 -4.5 C 1.1875 -4.5 0.3125 -3.484375 0.3125 -2.234375 C 0.3125 -0.90625 1.3125 0.0625 2.90625 0.0625 C 4.484375 0.0625 4.90625 -1 4.90625 -1.15625 Z M 3.96875 -2.5 L 1.59375 -2.5 C 1.609375 -2.875 1.625 -3.296875 1.828125 -3.625 C 2.09375 -4.03125 2.484375 -4.140625 2.765625 -4.140625 C 3.9375 -4.140625 3.953125 -2.84375 3.96875 -2.5 Z M 3.96875 -2.5 "/>
</symbol>
<symbol overflow="visible" id="glyph6-4">
<path style="stroke:none;" d="M 3.15625 -1.734375 L 3.15625 -2.6875 L 0.125 -2.6875 L 0.125 -1.734375 Z M 3.15625 -1.734375 "/>
</symbol>
<symbol overflow="visible" id="glyph6-5">
<path style="stroke:none;" d="M 5.5 -0.234375 C 5.5 -0.46875 5.359375 -0.46875 5.234375 -0.46875 C 4.625 -0.484375 4.625 -0.609375 4.625 -0.828125 L 4.625 -2.96875 C 4.625 -3.859375 3.921875 -4.5 2.4375 -4.5 C 1.875 -4.5 0.671875 -4.46875 0.671875 -3.59375 C 0.671875 -3.15625 1.015625 -2.96875 1.28125 -2.96875 C 1.59375 -2.96875 1.90625 -3.171875 1.90625 -3.59375 C 1.90625 -3.890625 1.71875 -4.046875 1.6875 -4.078125 C 1.96875 -4.140625 2.28125 -4.140625 2.40625 -4.140625 C 3.15625 -4.140625 3.5 -3.734375 3.5 -2.96875 L 3.5 -2.640625 C 2.796875 -2.609375 0.265625 -2.515625 0.265625 -1.078125 C 0.265625 -0.125 1.5 0.0625 2.1875 0.0625 C 2.984375 0.0625 3.453125 -0.34375 3.671875 -0.765625 C 3.671875 -0.453125 3.671875 0 4.703125 0 L 5.171875 0 C 5.375 0 5.5 0 5.5 -0.234375 Z M 3.5 -1.375 C 3.5 -0.421875 2.578125 -0.296875 2.328125 -0.296875 C 1.828125 -0.296875 1.4375 -0.640625 1.4375 -1.078125 C 1.4375 -2.15625 3 -2.296875 3.5 -2.328125 Z M 3.5 -1.375 "/>
</symbol>
<symbol overflow="visible" id="glyph6-6">
<path style="stroke:none;" d="M 4.75 -1.15625 C 4.75 -1.296875 4.609375 -1.296875 4.515625 -1.296875 C 4.328125 -1.296875 4.328125 -1.28125 4.265625 -1.15625 C 4.015625 -0.53125 3.53125 -0.34375 3.03125 -0.34375 C 1.65625 -0.34375 1.65625 -1.796875 1.65625 -2.25 C 1.65625 -2.8125 1.65625 -4.109375 2.9375 -4.109375 C 3.28125 -4.109375 3.453125 -4.078125 3.578125 -4.046875 C 3.40625 -3.890625 3.375 -3.671875 3.375 -3.59375 C 3.375 -3.15625 3.734375 -2.96875 4 -2.96875 C 4.296875 -2.96875 4.625 -3.171875 4.625 -3.59375 C 4.625 -4.4375 3.46875 -4.5 2.890625 -4.5 C 1.109375 -4.5 0.375 -3.359375 0.375 -2.203125 C 0.375 -0.890625 1.3125 0.0625 2.84375 0.0625 C 4.453125 0.0625 4.75 -1.09375 4.75 -1.15625 Z M 4.75 -1.15625 "/>
</symbol>
<symbol overflow="visible" id="glyph6-7">
<path style="stroke:none;" d="M 3.796875 -1.234375 L 3.796875 -1.765625 L 3.328125 -1.765625 L 3.328125 -1.25 C 3.328125 -0.578125 3.015625 -0.34375 2.734375 -0.34375 C 2.15625 -0.34375 2.15625 -0.96875 2.15625 -1.203125 L 2.15625 -3.9375 L 3.609375 -3.9375 L 3.609375 -4.40625 L 2.15625 -4.40625 L 2.15625 -6.3125 L 1.6875 -6.3125 C 1.671875 -5.3125 1.1875 -4.328125 0.203125 -4.296875 L 0.203125 -3.9375 L 1.03125 -3.9375 L 1.03125 -1.21875 C 1.03125 -0.15625 1.890625 0.0625 2.59375 0.0625 C 3.34375 0.0625 3.796875 -0.5 3.796875 -1.234375 Z M 3.796875 -1.234375 "/>
</symbol>
<symbol overflow="visible" id="glyph6-8">
<path style="stroke:none;" d="M 2.84375 0 L 2.84375 -0.46875 L 2.21875 -0.46875 L 2.21875 -4.46875 L 0.5 -4.390625 L 0.5 -3.921875 C 1.078125 -3.921875 1.15625 -3.921875 1.15625 -3.53125 L 1.15625 -0.46875 L 0.46875 -0.46875 L 0.46875 0 L 1.671875 -0.03125 Z M 2.359375 -6.03125 C 2.359375 -6.453125 2.015625 -6.8125 1.59375 -6.8125 C 1.15625 -6.8125 0.8125 -6.453125 0.8125 -6.03125 C 0.8125 -5.609375 1.15625 -5.25 1.59375 -5.25 C 2.015625 -5.25 2.359375 -5.609375 2.359375 -6.03125 Z M 2.359375 -6.03125 "/>
</symbol>
<symbol overflow="visible" id="glyph6-9">
<path style="stroke:none;" d="M 5.765625 -3.9375 L 5.765625 -4.40625 C 5.515625 -4.390625 5.234375 -4.375 4.984375 -4.375 L 4.078125 -4.40625 L 4.078125 -3.9375 C 4.265625 -3.9375 4.546875 -3.921875 4.546875 -3.828125 C 4.546875 -3.828125 4.546875 -3.8125 4.5 -3.71875 L 3.34375 -1.234375 L 2.09375 -3.9375 L 2.625 -3.9375 L 2.625 -4.40625 L 1.390625 -4.375 L 0.265625 -4.40625 L 0.265625 -3.9375 L 0.890625 -3.9375 L 2.640625 -0.203125 C 2.75 0.046875 2.875 0.046875 3.015625 0.046875 C 3.1875 0.046875 3.28125 0.015625 3.375 -0.203125 L 5.03125 -3.734375 C 5.09375 -3.875 5.125 -3.9375 5.765625 -3.9375 Z M 5.765625 -3.9375 "/>
</symbol>
<symbol overflow="visible" id="glyph6-10">
<path style="stroke:none;" d="M 5.390625 -2.171875 C 5.390625 -3.5 4.46875 -4.5 2.859375 -4.5 C 1.21875 -4.5 0.3125 -3.484375 0.3125 -2.171875 C 0.3125 -0.9375 1.1875 0.0625 2.859375 0.0625 C 4.515625 0.0625 5.390625 -0.9375 5.390625 -2.171875 Z M 4.109375 -2.28125 C 4.109375 -1.40625 4.109375 -0.34375 2.859375 -0.34375 C 1.59375 -0.34375 1.59375 -1.40625 1.59375 -2.28125 C 1.59375 -2.71875 1.59375 -3.234375 1.765625 -3.5625 C 1.953125 -3.9375 2.359375 -4.140625 2.859375 -4.140625 C 3.265625 -4.140625 3.6875 -3.984375 3.90625 -3.640625 C 4.109375 -3.296875 4.109375 -2.75 4.109375 -2.28125 Z M 4.109375 -2.28125 "/>
</symbol>
<symbol overflow="visible" id="glyph6-11">
<path style="stroke:none;" d="M 6.109375 0 L 6.109375 -0.46875 L 5.421875 -0.46875 L 5.421875 -3.046875 C 5.421875 -4.078125 4.890625 -4.46875 3.890625 -4.46875 C 2.9375 -4.46875 2.421875 -3.90625 2.15625 -3.40625 L 2.15625 -4.46875 L 0.453125 -4.390625 L 0.453125 -3.921875 C 1.0625 -3.921875 1.140625 -3.921875 1.140625 -3.53125 L 1.140625 -0.46875 L 0.453125 -0.46875 L 0.453125 0 L 1.703125 -0.03125 L 2.953125 0 L 2.953125 -0.46875 L 2.265625 -0.46875 L 2.265625 -2.546875 C 2.265625 -3.625 3.125 -4.109375 3.75 -4.109375 C 4.078125 -4.109375 4.296875 -3.90625 4.296875 -3.15625 L 4.296875 -0.46875 L 3.609375 -0.46875 L 3.609375 0 L 4.859375 -0.03125 Z M 6.109375 0 "/>
</symbol>
<symbol overflow="visible" id="glyph6-12">
<path style="stroke:none;" d="M 2.359375 -3.640625 C 2.359375 -4.0625 2 -4.40625 1.578125 -4.40625 C 1.15625 -4.40625 0.8125 -4.0625 0.8125 -3.640625 C 0.8125 -3.203125 1.15625 -2.859375 1.578125 -2.859375 C 2 -2.859375 2.359375 -3.203125 2.359375 -3.640625 Z M 2.359375 -0.78125 C 2.359375 -1.203125 2 -1.546875 1.578125 -1.546875 C 1.15625 -1.546875 0.8125 -1.203125 0.8125 -0.78125 C 0.8125 -0.34375 1.15625 0 1.578125 0 C 2 0 2.359375 -0.34375 2.359375 -0.78125 Z M 2.359375 -0.78125 "/>
</symbol>
<symbol overflow="visible" id="glyph6-13">
<path style="stroke:none;" d="M 4.125 -1.390625 C 4.125 -1.8125 3.921875 -2.171875 3.578125 -2.4375 C 3.1875 -2.734375 2.875 -2.796875 2.09375 -2.921875 C 1.734375 -2.984375 1.078125 -3.09375 1.078125 -3.5625 C 1.078125 -4.1875 2 -4.1875 2.203125 -4.1875 C 2.9375 -4.1875 3.3125 -3.890625 3.375 -3.34375 C 3.375 -3.203125 3.390625 -3.15625 3.59375 -3.15625 C 3.828125 -3.15625 3.828125 -3.203125 3.828125 -3.421875 L 3.828125 -4.21875 C 3.828125 -4.40625 3.828125 -4.5 3.65625 -4.5 C 3.625 -4.5 3.59375 -4.5 3.203125 -4.3125 C 2.953125 -4.4375 2.609375 -4.5 2.203125 -4.5 C 1.90625 -4.5 0.375 -4.5 0.375 -3.203125 C 0.375 -2.796875 0.578125 -2.53125 0.78125 -2.359375 C 1.171875 -2.015625 1.546875 -1.953125 2.3125 -1.8125 C 2.671875 -1.765625 3.421875 -1.625 3.421875 -1.046875 C 3.421875 -0.296875 2.5 -0.296875 2.28125 -0.296875 C 1.234375 -0.296875 0.96875 -1.03125 0.859375 -1.453125 C 0.8125 -1.59375 0.75 -1.59375 0.609375 -1.59375 C 0.375 -1.59375 0.375 -1.53125 0.375 -1.296875 L 0.375 -0.21875 C 0.375 -0.03125 0.375 0.0625 0.5625 0.0625 C 0.625 0.0625 0.640625 0.0625 0.859375 -0.09375 L 1.109375 -0.265625 C 1.5625 0.0625 2.09375 0.0625 2.28125 0.0625 C 2.59375 0.0625 4.125 0.0625 4.125 -1.390625 Z M 4.125 -1.390625 "/>
</symbol>
<symbol overflow="visible" id="glyph7-0">
<path style="stroke:none;" d=""/>
</symbol>
<symbol overflow="visible" id="glyph7-1">
<path style="stroke:none;" d="M 1.328125 -0.828125 C 1.859375 -1.40625 2.140625 -1.65625 2.5 -1.953125 C 2.5 -1.96875 3.125 -2.5 3.484375 -2.859375 C 4.421875 -3.78125 4.640625 -4.25 4.640625 -4.296875 C 4.640625 -4.390625 4.546875 -4.390625 4.53125 -4.390625 C 4.46875 -4.390625 4.4375 -4.375 4.375 -4.28125 C 4.078125 -3.8125 3.875 -3.640625 3.640625 -3.640625 C 3.40625 -3.640625 3.28125 -3.796875 3.125 -3.96875 C 2.9375 -4.1875 2.765625 -4.390625 2.4375 -4.390625 C 1.703125 -4.390625 1.25 -3.46875 1.25 -3.265625 C 1.25 -3.203125 1.265625 -3.15625 1.359375 -3.15625 C 1.453125 -3.15625 1.46875 -3.203125 1.484375 -3.265625 C 1.671875 -3.71875 2.25 -3.734375 2.328125 -3.734375 C 2.546875 -3.734375 2.734375 -3.65625 2.96875 -3.578125 C 3.359375 -3.421875 3.46875 -3.421875 3.734375 -3.421875 C 3.375 -3 2.53125 -2.28125 2.34375 -2.125 L 1.453125 -1.296875 C 0.78125 -0.625 0.421875 -0.0625 0.421875 0.015625 C 0.421875 0.109375 0.53125 0.109375 0.546875 0.109375 C 0.625 0.109375 0.640625 0.09375 0.703125 -0.015625 C 0.9375 -0.375 1.234375 -0.640625 1.546875 -0.640625 C 1.78125 -0.640625 1.875 -0.546875 2.125 -0.265625 C 2.296875 -0.046875 2.46875 0.109375 2.765625 0.109375 C 3.75 0.109375 4.328125 -1.15625 4.328125 -1.421875 C 4.328125 -1.46875 4.28125 -1.515625 4.203125 -1.515625 C 4.109375 -1.515625 4.09375 -1.453125 4.0625 -1.390625 C 3.828125 -0.75 3.203125 -0.5625 2.875 -0.5625 C 2.671875 -0.5625 2.5 -0.609375 2.28125 -0.6875 C 1.953125 -0.8125 1.796875 -0.859375 1.59375 -0.859375 C 1.5625 -0.859375 1.40625 -0.859375 1.328125 -0.828125 Z M 1.328125 -0.828125 "/>
</symbol>
<symbol overflow="visible" id="glyph7-2">
<path style="stroke:none;" d="M 9.109375 -5.640625 C 9.359375 -6.078125 9.59375 -6.421875 10.21875 -6.484375 C 10.3125 -6.484375 10.421875 -6.484375 10.421875 -6.671875 C 10.421875 -6.71875 10.375 -6.78125 10.296875 -6.78125 C 10.0625 -6.78125 9.78125 -6.75 9.53125 -6.75 C 9.1875 -6.75 8.828125 -6.78125 8.5 -6.78125 C 8.4375 -6.78125 8.3125 -6.78125 8.3125 -6.59375 C 8.3125 -6.484375 8.390625 -6.484375 8.453125 -6.484375 C 8.703125 -6.46875 9.046875 -6.390625 9.046875 -6.09375 C 9.046875 -5.984375 9 -5.90625 8.90625 -5.765625 L 6.234375 -1.078125 L 5.859375 -6.015625 C 5.859375 -6.21875 5.828125 -6.46875 6.5625 -6.484375 C 6.734375 -6.484375 6.828125 -6.484375 6.828125 -6.671875 C 6.828125 -6.78125 6.71875 -6.78125 6.671875 -6.78125 C 6.28125 -6.78125 5.859375 -6.75 5.46875 -6.75 C 5.234375 -6.75 4.65625 -6.78125 4.421875 -6.78125 C 4.359375 -6.78125 4.234375 -6.78125 4.234375 -6.59375 C 4.234375 -6.484375 4.328125 -6.484375 4.46875 -6.484375 C 4.90625 -6.484375 4.984375 -6.421875 5 -6.234375 L 5.0625 -5.46875 L 2.546875 -1.078125 L 2.171875 -6.125 C 2.171875 -6.234375 2.171875 -6.46875 2.921875 -6.484375 C 3.015625 -6.484375 3.125 -6.484375 3.125 -6.671875 C 3.125 -6.78125 3.015625 -6.78125 2.984375 -6.78125 C 2.59375 -6.78125 2.171875 -6.75 1.765625 -6.75 C 1.421875 -6.75 1.0625 -6.78125 0.71875 -6.78125 C 0.671875 -6.78125 0.546875 -6.78125 0.546875 -6.59375 C 0.546875 -6.484375 0.640625 -6.484375 0.796875 -6.484375 C 1.296875 -6.484375 1.296875 -6.390625 1.328125 -6.109375 L 1.765625 -0.046875 C 1.78125 0.140625 1.78125 0.21875 1.921875 0.21875 C 2.046875 0.21875 2.078125 0.15625 2.171875 0.015625 L 5.09375 -5.0625 L 5.453125 -0.046875 C 5.46875 0.171875 5.5 0.21875 5.609375 0.21875 C 5.75 0.21875 5.796875 0.125 5.859375 0.03125 Z M 9.109375 -5.640625 "/>
</symbol>
<symbol overflow="visible" id="glyph7-3">
<path style="stroke:none;" d="M 3.703125 -3.75 C 3.53125 -4.125 3.234375 -4.390625 2.796875 -4.390625 C 1.625 -4.390625 0.390625 -2.9375 0.390625 -1.484375 C 0.390625 -0.546875 0.9375 0.109375 1.71875 0.109375 C 1.921875 0.109375 2.421875 0.0625 3.015625 -0.640625 C 3.09375 -0.21875 3.4375 0.109375 3.921875 0.109375 C 4.265625 0.109375 4.484375 -0.125 4.65625 -0.4375 C 4.8125 -0.796875 4.953125 -1.40625 4.953125 -1.421875 C 4.953125 -1.515625 4.859375 -1.515625 4.828125 -1.515625 C 4.734375 -1.515625 4.71875 -1.484375 4.6875 -1.34375 C 4.515625 -0.703125 4.34375 -0.109375 3.9375 -0.109375 C 3.671875 -0.109375 3.640625 -0.375 3.640625 -0.5625 C 3.640625 -0.78125 3.65625 -0.859375 3.765625 -1.296875 C 3.875 -1.71875 3.890625 -1.8125 3.984375 -2.203125 L 4.34375 -3.59375 C 4.40625 -3.859375 4.40625 -3.890625 4.40625 -3.921875 C 4.40625 -4.09375 4.296875 -4.1875 4.125 -4.1875 C 3.890625 -4.1875 3.734375 -3.96875 3.703125 -3.75 Z M 3.0625 -1.1875 C 3.015625 -1 3.015625 -0.984375 2.859375 -0.8125 C 2.421875 -0.265625 2.015625 -0.109375 1.734375 -0.109375 C 1.25 -0.109375 1.109375 -0.65625 1.109375 -1.046875 C 1.109375 -1.546875 1.421875 -2.765625 1.65625 -3.21875 C 1.953125 -3.8125 2.40625 -4.171875 2.796875 -4.171875 C 3.453125 -4.171875 3.59375 -3.359375 3.59375 -3.296875 C 3.59375 -3.234375 3.5625 -3.1875 3.5625 -3.125 Z M 3.0625 -1.1875 "/>
</symbol>
<symbol overflow="visible" id="glyph7-4">
<path style="stroke:none;" d="M 2.375 -6.78125 C 2.375 -6.796875 2.375 -6.890625 2.25 -6.890625 C 2.015625 -6.890625 1.296875 -6.8125 1.03125 -6.796875 C 0.953125 -6.78125 0.84375 -6.78125 0.84375 -6.59375 C 0.84375 -6.484375 0.9375 -6.484375 1.078125 -6.484375 C 1.5625 -6.484375 1.578125 -6.40625 1.578125 -6.3125 C 1.578125 -6.234375 1.484375 -5.90625 1.4375 -5.6875 L 0.625 -2.453125 C 0.5 -1.953125 0.46875 -1.796875 0.46875 -1.453125 C 0.46875 -0.5 1 0.109375 1.734375 0.109375 C 2.90625 0.109375 4.125 -1.375 4.125 -2.796875 C 4.125 -3.703125 3.59375 -4.390625 2.796875 -4.390625 C 2.34375 -4.390625 1.9375 -4.109375 1.640625 -3.796875 Z M 1.4375 -3.03125 C 1.5 -3.25 1.5 -3.265625 1.59375 -3.375 C 2.078125 -4.03125 2.53125 -4.171875 2.78125 -4.171875 C 3.140625 -4.171875 3.40625 -3.875 3.40625 -3.234375 C 3.40625 -2.65625 3.078125 -1.515625 2.90625 -1.140625 C 2.578125 -0.46875 2.109375 -0.109375 1.734375 -0.109375 C 1.390625 -0.109375 1.0625 -0.375 1.0625 -1.109375 C 1.0625 -1.296875 1.0625 -1.484375 1.21875 -2.109375 Z M 1.4375 -3.03125 "/>
</symbol>
<symbol overflow="visible" id="glyph7-5">
<path style="stroke:none;" d="M 5.140625 -3.703125 C 5.28125 -3.703125 5.640625 -3.703125 5.640625 -4.046875 C 5.640625 -4.28125 5.421875 -4.28125 5.25 -4.28125 L 2.984375 -4.28125 C 1.484375 -4.28125 0.375 -2.640625 0.375 -1.453125 C 0.375 -0.59375 0.96875 0.109375 1.875 0.109375 C 3.046875 0.109375 4.359375 -1.09375 4.359375 -2.625 C 4.359375 -2.796875 4.359375 -3.265625 4.046875 -3.703125 Z M 1.875 -0.109375 C 1.390625 -0.109375 1 -0.46875 1 -1.1875 C 1 -1.484375 1.109375 -2.296875 1.453125 -2.875 C 1.875 -3.5625 2.46875 -3.703125 2.8125 -3.703125 C 3.640625 -3.703125 3.734375 -3.046875 3.734375 -2.75 C 3.734375 -2.28125 3.53125 -1.453125 3.1875 -0.953125 C 2.796875 -0.375 2.265625 -0.109375 1.875 -0.109375 Z M 1.875 -0.109375 "/>
</symbol>
<symbol overflow="visible" id="glyph7-6">
<path style="stroke:none;" d="M 3.3125 -3 C 3.375 -3.265625 3.609375 -4.171875 4.296875 -4.171875 C 4.359375 -4.171875 4.59375 -4.171875 4.796875 -4.046875 C 4.515625 -4 4.328125 -3.75 4.328125 -3.515625 C 4.328125 -3.34375 4.4375 -3.15625 4.703125 -3.15625 C 4.921875 -3.15625 5.234375 -3.34375 5.234375 -3.734375 C 5.234375 -4.25 4.65625 -4.390625 4.3125 -4.390625 C 3.734375 -4.390625 3.390625 -3.859375 3.265625 -3.640625 C 3.015625 -4.296875 2.484375 -4.390625 2.203125 -4.390625 C 1.15625 -4.390625 0.59375 -3.109375 0.59375 -2.859375 C 0.59375 -2.765625 0.703125 -2.765625 0.71875 -2.765625 C 0.796875 -2.765625 0.828125 -2.78125 0.84375 -2.875 C 1.1875 -3.921875 1.84375 -4.171875 2.171875 -4.171875 C 2.359375 -4.171875 2.71875 -4.078125 2.71875 -3.515625 C 2.71875 -3.203125 2.546875 -2.53125 2.171875 -1.140625 C 2.015625 -0.53125 1.671875 -0.109375 1.234375 -0.109375 C 1.171875 -0.109375 0.9375 -0.109375 0.734375 -0.234375 C 0.984375 -0.28125 1.203125 -0.5 1.203125 -0.78125 C 1.203125 -1.046875 0.984375 -1.125 0.828125 -1.125 C 0.53125 -1.125 0.28125 -0.859375 0.28125 -0.546875 C 0.28125 -0.09375 0.78125 0.109375 1.21875 0.109375 C 1.875 0.109375 2.234375 -0.59375 2.265625 -0.640625 C 2.390625 -0.28125 2.75 0.109375 3.34375 0.109375 C 4.359375 0.109375 4.921875 -1.171875 4.921875 -1.421875 C 4.921875 -1.515625 4.84375 -1.515625 4.8125 -1.515625 C 4.71875 -1.515625 4.703125 -1.484375 4.6875 -1.40625 C 4.359375 -0.34375 3.671875 -0.109375 3.359375 -0.109375 C 2.96875 -0.109375 2.8125 -0.421875 2.8125 -0.765625 C 2.8125 -0.984375 2.875 -1.203125 2.984375 -1.640625 Z M 3.3125 -3 "/>
</symbol>
<symbol overflow="visible" id="glyph8-0">
<path style="stroke:none;" d=""/>
</symbol>
<symbol overflow="visible" id="glyph8-1">
<path style="stroke:none;" d="M 2.46875 -5.21875 C 1.140625 -4.28125 0.796875 -2.8125 0.796875 -1.75 C 0.796875 -0.765625 1.09375 0.765625 2.46875 1.734375 C 2.53125 1.734375 2.609375 1.734375 2.609375 1.640625 C 2.609375 1.609375 2.59375 1.59375 2.53125 1.546875 C 1.609375 0.703125 1.265625 -0.46875 1.265625 -1.734375 C 1.265625 -3.609375 1.984375 -4.53125 2.5625 -5.046875 C 2.59375 -5.078125 2.609375 -5.09375 2.609375 -5.125 C 2.609375 -5.21875 2.53125 -5.21875 2.46875 -5.21875 Z M 2.46875 -5.21875 "/>
</symbol>
<symbol overflow="visible" id="glyph8-2">
<path style="stroke:none;" d="M 0.625 -5.21875 C 0.578125 -5.21875 0.5 -5.21875 0.5 -5.125 C 0.5 -5.09375 0.515625 -5.078125 0.5625 -5.03125 C 1.15625 -4.484375 1.828125 -3.546875 1.828125 -1.75 C 1.828125 -0.296875 1.375 0.8125 0.625 1.484375 C 0.5 1.609375 0.5 1.609375 0.5 1.640625 C 0.5 1.6875 0.515625 1.734375 0.578125 1.734375 C 0.671875 1.734375 1.328125 1.265625 1.78125 0.40625 C 2.09375 -0.171875 2.296875 -0.921875 2.296875 -1.734375 C 2.296875 -2.71875 2 -4.234375 0.625 -5.21875 Z M 0.625 -5.21875 "/>
</symbol>
<symbol overflow="visible" id="glyph8-3">
<path style="stroke:none;" d="M 2.328125 -4.421875 C 2.328125 -4.609375 2.3125 -4.609375 2.125 -4.609375 C 1.671875 -4.171875 1.046875 -4.171875 0.765625 -4.171875 L 0.765625 -3.921875 C 0.921875 -3.921875 1.390625 -3.921875 1.765625 -4.109375 L 1.765625 -0.5625 C 1.765625 -0.34375 1.765625 -0.25 1.078125 -0.25 L 0.8125 -0.25 L 0.8125 0 C 0.9375 0 1.78125 -0.03125 2.046875 -0.03125 C 2.265625 -0.03125 3.140625 0 3.28125 0 L 3.28125 -0.25 L 3.03125 -0.25 C 2.328125 -0.25 2.328125 -0.34375 2.328125 -0.5625 Z M 2.328125 -4.421875 "/>
</symbol>
<symbol overflow="visible" id="glyph8-4">
<path style="stroke:none;" d="M 3.59375 -2.21875 C 3.59375 -2.984375 3.5 -3.53125 3.171875 -4.015625 C 2.96875 -4.34375 2.53125 -4.609375 1.96875 -4.609375 C 0.359375 -4.609375 0.359375 -2.71875 0.359375 -2.21875 C 0.359375 -1.71875 0.359375 0.140625 1.96875 0.140625 C 3.59375 0.140625 3.59375 -1.71875 3.59375 -2.21875 Z M 1.96875 -0.0625 C 1.65625 -0.0625 1.234375 -0.25 1.09375 -0.8125 C 1 -1.21875 1 -1.796875 1 -2.3125 C 1 -2.8125 1 -3.34375 1.09375 -3.734375 C 1.25 -4.28125 1.6875 -4.421875 1.96875 -4.421875 C 2.34375 -4.421875 2.71875 -4.1875 2.84375 -3.796875 C 2.953125 -3.40625 2.953125 -2.90625 2.953125 -2.3125 C 2.953125 -1.796875 2.953125 -1.28125 2.859375 -0.84375 C 2.71875 -0.203125 2.25 -0.0625 1.96875 -0.0625 Z M 1.96875 -0.0625 "/>
</symbol>
<symbol overflow="visible" id="glyph9-0">
<path style="stroke:none;" d=""/>
</symbol>
<symbol overflow="visible" id="glyph9-1">
<path style="stroke:none;" d="M 0.828125 -0.953125 C 0.890625 -0.5 1.125 0.078125 1.71875 0.078125 C 1.9375 0.078125 2.1875 0 2.4375 -0.171875 C 2.5625 -0.234375 2.921875 -0.5 2.921875 -0.578125 C 2.921875 -0.625 2.875 -0.703125 2.8125 -0.703125 C 2.78125 -0.703125 2.765625 -0.703125 2.65625 -0.609375 C 2.359375 -0.34375 2.03125 -0.109375 1.71875 -0.109375 C 1.25 -0.109375 1.25 -0.921875 1.25 -1.0625 C 1.25 -1.140625 1.25 -1.15625 1.265625 -1.296875 C 1.265625 -1.359375 1.265625 -1.375 1.359375 -1.453125 C 1.734375 -1.8125 3.046875 -3.078125 3.046875 -4.296875 C 3.046875 -4.390625 3.046875 -4.890625 2.59375 -4.890625 C 2.015625 -4.890625 1.546875 -4 1.4375 -3.796875 C 1.140625 -3.203125 0.96875 -2.625 0.890625 -2.28125 C 0.796875 -1.8125 0.796875 -1.578125 0.796875 -1.234375 C 0.75 -1.1875 0.34375 -0.828125 0.28125 -0.765625 C 0.171875 -0.671875 0.15625 -0.671875 0.15625 -0.625 C 0.15625 -0.578125 0.21875 -0.5 0.28125 -0.5 C 0.328125 -0.5 0.515625 -0.671875 0.5625 -0.71875 Z M 1.328125 -1.75 C 1.453125 -2.453125 2 -4.703125 2.59375 -4.703125 C 2.75 -4.703125 2.828125 -4.59375 2.828125 -4.34375 C 2.828125 -4.25 2.828125 -3.640625 2.234375 -2.78125 C 1.875 -2.28125 1.5 -1.90625 1.328125 -1.75 Z M 1.328125 -1.75 "/>
</symbol>
<symbol overflow="visible" id="glyph10-0">
<path style="stroke:none;" d=""/>
</symbol>
<symbol overflow="visible" id="glyph10-1">
<path style="stroke:none;" d="M 6.828125 -3.25 C 6.96875 -3.25 7.171875 -3.25 7.171875 -3.453125 C 7.171875 -3.640625 6.96875 -3.640625 6.84375 -3.640625 L 0.890625 -3.640625 C 0.75 -3.640625 0.5625 -3.640625 0.5625 -3.453125 C 0.5625 -3.25 0.75 -3.25 0.890625 -3.25 Z M 6.84375 -1.328125 C 6.96875 -1.328125 7.171875 -1.328125 7.171875 -1.515625 C 7.171875 -1.71875 6.96875 -1.71875 6.828125 -1.71875 L 0.890625 -1.71875 C 0.75 -1.71875 0.5625 -1.71875 0.5625 -1.515625 C 0.5625 -1.328125 0.75 -1.328125 0.890625 -1.328125 Z M 6.84375 -1.328125 "/>
</symbol>
<symbol overflow="visible" id="glyph10-2">
<path style="stroke:none;" d="M 4.0625 -2.28125 L 6.84375 -2.28125 C 6.96875 -2.28125 7.171875 -2.28125 7.171875 -2.484375 C 7.171875 -2.6875 6.96875 -2.6875 6.84375 -2.6875 L 4.0625 -2.6875 L 4.0625 -5.46875 C 4.0625 -5.609375 4.0625 -5.796875 3.859375 -5.796875 C 3.671875 -5.796875 3.671875 -5.609375 3.671875 -5.46875 L 3.671875 -2.6875 L 0.890625 -2.6875 C 0.75 -2.6875 0.5625 -2.6875 0.5625 -2.484375 C 0.5625 -2.28125 0.75 -2.28125 0.890625 -2.28125 L 3.671875 -2.28125 L 3.671875 0.5 C 3.671875 0.640625 3.671875 0.828125 3.859375 0.828125 C 4.0625 0.828125 4.0625 0.640625 4.0625 0.5 Z M 4.0625 -2.28125 "/>
</symbol>
<symbol overflow="visible" id="glyph11-0">
<path style="stroke:none;" d=""/>
</symbol>
<symbol overflow="visible" id="glyph11-1">
<path style="stroke:none;" d="M 5.171875 -1.578125 C 5.28125 -1.578125 5.453125 -1.578125 5.453125 -1.734375 C 5.453125 -1.90625 5.296875 -1.90625 5.171875 -1.90625 L 1.03125 -1.90625 C 0.921875 -1.90625 0.75 -1.90625 0.75 -1.75 C 0.75 -1.578125 0.90625 -1.578125 1.03125 -1.578125 Z M 5.171875 -1.578125 "/>
</symbol>
<symbol overflow="visible" id="glyph12-0">
<path style="stroke:none;" d=""/>
</symbol>
<symbol overflow="visible" id="glyph12-1">
<path style="stroke:none;" d="M 4.109375 11.421875 C 4.109375 11.375 4.078125 11.359375 4.0625 11.328125 C 3.609375 10.84375 2.9375 10.03125 2.515625 8.421875 C 2.28125 7.515625 2.203125 6.484375 2.203125 5.5625 C 2.203125 2.953125 2.828125 1.125 4.015625 -0.171875 C 4.109375 -0.265625 4.109375 -0.28125 4.109375 -0.296875 C 4.109375 -0.390625 4.03125 -0.390625 3.984375 -0.390625 C 3.828125 -0.390625 3.296875 0.203125 3.171875 0.34375 C 2.15625 1.546875 1.515625 3.34375 1.515625 5.5625 C 1.515625 6.96875 1.765625 8.96875 3.0625 10.640625 C 3.15625 10.765625 3.8125 11.515625 3.984375 11.515625 C 4.03125 11.515625 4.109375 11.515625 4.109375 11.421875 Z M 4.109375 11.421875 "/>
</symbol>
<symbol overflow="visible" id="glyph12-2">
<path style="stroke:none;" d="M 3.03125 5.5625 C 3.03125 4.15625 2.78125 2.15625 1.484375 0.484375 C 1.375 0.359375 0.734375 -0.390625 0.5625 -0.390625 C 0.5 -0.390625 0.4375 -0.375 0.4375 -0.296875 C 0.4375 -0.265625 0.453125 -0.234375 0.5 -0.203125 C 0.96875 0.3125 1.625 1.125 2.03125 2.703125 C 2.25 3.609375 2.34375 4.625 2.34375 5.5625 C 2.34375 6.5625 2.25 7.578125 2 8.546875 C 1.625 9.9375 1.03125 10.734375 0.53125 11.28125 C 0.4375 11.375 0.4375 11.390625 0.4375 11.421875 C 0.4375 11.5 0.5 11.515625 0.5625 11.515625 C 0.703125 11.515625 1.25 10.90625 1.375 10.765625 C 2.390625 9.5625 3.03125 7.78125 3.03125 5.5625 Z M 3.03125 5.5625 "/>
</symbol>
<symbol overflow="visible" id="glyph13-0">
<path style="stroke:none;" d=""/>
</symbol>
<symbol overflow="visible" id="glyph13-1">
<path style="stroke:none;" d="M 6.984375 -3.96875 L 6.984375 -4.28125 C 6.765625 -4.265625 6.484375 -4.25 6.265625 -4.25 L 5.34375 -4.28125 L 5.34375 -3.96875 C 5.6875 -3.96875 5.90625 -3.78125 5.90625 -3.5 C 5.90625 -3.4375 5.90625 -3.421875 5.859375 -3.296875 L 4.953125 -0.75 L 3.96875 -3.515625 C 3.9375 -3.640625 3.921875 -3.65625 3.921875 -3.703125 C 3.921875 -3.96875 4.3125 -3.96875 4.515625 -3.96875 L 4.515625 -4.28125 L 3.484375 -4.25 C 3.1875 -4.25 2.890625 -4.265625 2.59375 -4.28125 L 2.59375 -3.96875 C 2.96875 -3.96875 3.125 -3.953125 3.21875 -3.828125 C 3.265625 -3.765625 3.375 -3.46875 3.453125 -3.28125 L 2.59375 -0.875 L 1.65625 -3.53125 C 1.59375 -3.640625 1.59375 -3.671875 1.59375 -3.703125 C 1.59375 -3.96875 1.984375 -3.96875 2.1875 -3.96875 L 2.1875 -4.28125 L 1.109375 -4.25 L 0.171875 -4.28125 L 0.171875 -3.96875 C 0.671875 -3.96875 0.796875 -3.9375 0.921875 -3.625 L 2.171875 -0.109375 C 2.21875 0.03125 2.25 0.109375 2.375 0.109375 C 2.5 0.109375 2.53125 0.046875 2.578125 -0.09375 L 3.578125 -2.90625 L 4.59375 -0.078125 C 4.625 0.03125 4.65625 0.109375 4.796875 0.109375 C 4.921875 0.109375 4.953125 0.015625 4.984375 -0.078125 L 6.15625 -3.34375 C 6.328125 -3.828125 6.640625 -3.96875 6.984375 -3.96875 Z M 6.984375 -3.96875 "/>
</symbol>
<symbol overflow="visible" id="glyph13-2">
<path style="stroke:none;" d="M 5.3125 0 L 5.3125 -0.3125 C 4.796875 -0.3125 4.546875 -0.3125 4.546875 -0.609375 L 4.546875 -2.5 C 4.546875 -3.359375 4.546875 -3.671875 4.234375 -4.03125 C 4.09375 -4.1875 3.765625 -4.390625 3.1875 -4.390625 C 2.359375 -4.390625 1.921875 -3.796875 1.765625 -3.4375 L 1.75 -3.4375 L 1.75 -6.890625 L 0.3125 -6.78125 L 0.3125 -6.484375 C 1.015625 -6.484375 1.09375 -6.40625 1.09375 -5.921875 L 1.09375 -0.75 C 1.09375 -0.3125 0.984375 -0.3125 0.3125 -0.3125 L 0.3125 0 L 1.4375 -0.03125 L 2.546875 0 L 2.546875 -0.3125 C 1.890625 -0.3125 1.78125 -0.3125 1.78125 -0.75 L 1.78125 -2.578125 C 1.78125 -3.625 2.484375 -4.171875 3.125 -4.171875 C 3.75 -4.171875 3.859375 -3.640625 3.859375 -3.078125 L 3.859375 -0.75 C 3.859375 -0.3125 3.75 -0.3125 3.078125 -0.3125 L 3.078125 0 L 4.203125 -0.03125 Z M 5.3125 0 "/>
</symbol>
<symbol overflow="visible" id="glyph13-3">
<path style="stroke:none;" d="M 4.125 -1.1875 C 4.125 -1.28125 4.046875 -1.296875 4 -1.296875 C 3.90625 -1.296875 3.890625 -1.25 3.859375 -1.15625 C 3.515625 -0.140625 2.625 -0.140625 2.53125 -0.140625 C 2.03125 -0.140625 1.625 -0.4375 1.40625 -0.8125 C 1.109375 -1.28125 1.109375 -1.9375 1.109375 -2.296875 L 3.875 -2.296875 C 4.09375 -2.296875 4.125 -2.296875 4.125 -2.5 C 4.125 -3.484375 3.59375 -4.453125 2.34375 -4.453125 C 1.1875 -4.453125 0.28125 -3.421875 0.28125 -2.1875 C 0.28125 -0.859375 1.328125 0.109375 2.46875 0.109375 C 3.671875 0.109375 4.125 -1 4.125 -1.1875 Z M 3.46875 -2.5 L 1.109375 -2.5 C 1.171875 -3.984375 2 -4.234375 2.34375 -4.234375 C 3.375 -4.234375 3.46875 -2.890625 3.46875 -2.5 Z M 3.46875 -2.5 "/>
</symbol>
<symbol overflow="visible" id="glyph13-4">
<path style="stroke:none;" d="M 3.625 -3.78125 C 3.625 -4.109375 3.3125 -4.390625 2.875 -4.390625 C 2.15625 -4.390625 1.796875 -3.734375 1.65625 -3.296875 L 1.65625 -4.390625 L 0.28125 -4.28125 L 0.28125 -3.96875 C 0.96875 -3.96875 1.046875 -3.90625 1.046875 -3.421875 L 1.046875 -0.75 C 1.046875 -0.3125 0.9375 -0.3125 0.28125 -0.3125 L 0.28125 0 L 1.40625 -0.03125 C 1.8125 -0.03125 2.28125 -0.03125 2.671875 0 L 2.671875 -0.3125 L 2.46875 -0.3125 C 1.734375 -0.3125 1.703125 -0.421875 1.703125 -0.78125 L 1.703125 -2.3125 C 1.703125 -3.296875 2.125 -4.171875 2.875 -4.171875 C 2.953125 -4.171875 2.96875 -4.171875 2.984375 -4.15625 C 2.96875 -4.15625 2.765625 -4.03125 2.765625 -3.78125 C 2.765625 -3.5 2.96875 -3.34375 3.1875 -3.34375 C 3.375 -3.34375 3.625 -3.46875 3.625 -3.78125 Z M 3.625 -3.78125 "/>
</symbol>
</g>
</defs>
<g id="surface1">
<path style="fill-rule:nonzero;fill:rgb(89.99939%,89.99939%,100%);fill-opacity:1;stroke-width:0.79701;stroke-linecap:butt;stroke-linejoin:miter;stroke:rgb(39.99939%,39.99939%,100%);stroke-opacity:1;stroke-miterlimit:10;" d="M 15.589031 93.546438 C 15.589031 102.155473 8.609367 109.135136 0.000332507 109.135136 C -8.612619 109.135136 -15.592283 102.155473 -15.592283 93.546438 C -15.592283 84.933486 -8.612619 77.953823 0.000332507 77.953823 C 8.609367 77.953823 15.589031 84.933486 15.589031 93.546438 Z M 15.589031 93.546438 " transform="matrix(0.997317,0,0,-0.997317,72.905918,135.541554)"/>
<g style="fill:rgb(0%,0%,0%);fill-opacity:1;">
  <use xlink:href="#glyph0-1" x="67.437001" y="43.774201"/>
</g>
<g style="fill:rgb(0%,0%,0%);fill-opacity:1;">
  <use xlink:href="#glyph1-1" x="73.655133" y="45.406161"/>
</g>
<path style="fill-rule:nonzero;fill:rgb(89.99939%,89.99939%,100%);fill-opacity:1;stroke-width:0.79701;stroke-linecap:butt;stroke-linejoin:miter;stroke:rgb(39.99939%,39.99939%,100%);stroke-opacity:1;stroke-miterlimit:10;" d="M 15.589031 62.361208 C 15.589031 70.97416 8.609367 77.953823 0.000332507 77.953823 C -8.612619 77.953823 -15.592283 70.97416 -15.592283 62.361208 C -15.592283 53.752173 -8.612619 46.77251 0.000332507 46.77251 C 8.609367 46.77251 15.589031 53.752173 15.589031 62.361208 Z M 15.589031 62.361208 " transform="matrix(0.997317,0,0,-0.997317,72.905918,135.541554)"/>
<g style="fill:rgb(0%,0%,0%);fill-opacity:1;">
  <use xlink:href="#glyph0-1" x="67.437001" y="74.872193"/>
</g>
<g style="fill:rgb(0%,0%,0%);fill-opacity:1;">
  <use xlink:href="#glyph1-2" x="73.655133" y="76.504153"/>
</g>
<path style="fill-rule:nonzero;fill:rgb(89.99939%,89.99939%,100%);fill-opacity:1;stroke-width:0.79701;stroke-linecap:butt;stroke-linejoin:miter;stroke:rgb(39.99939%,39.99939%,100%);stroke-opacity:1;stroke-miterlimit:10;" d="M 15.589031 31.179895 C 15.589031 39.792846 8.609367 46.77251 0.000332507 46.77251 C -8.612619 46.77251 -15.592283 39.792846 -15.592283 31.179895 C -15.592283 22.57086 -8.612619 15.591196 0.000332507 15.591196 C 8.609367 15.591196 15.589031 22.57086 15.589031 31.179895 Z M 15.589031 31.179895 " transform="matrix(0.997317,0,0,-0.997317,72.905918,135.541554)"/>
<g style="fill:rgb(0%,0%,0%);fill-opacity:1;">
  <use xlink:href="#glyph0-1" x="67.437001" y="105.969766"/>
</g>
<g style="fill:rgb(0%,0%,0%);fill-opacity:1;">
  <use xlink:href="#glyph1-3" x="73.655133" y="107.601726"/>
</g>
<path style="fill-rule:nonzero;fill:rgb(89.99939%,89.99939%,100%);fill-opacity:1;stroke-width:0.79701;stroke-linecap:butt;stroke-linejoin:miter;stroke:rgb(39.99939%,39.99939%,100%);stroke-opacity:1;stroke-miterlimit:10;" d="M 15.589031 -0.00141889 C 15.589031 8.611533 8.609367 15.591196 0.000332507 15.591196 C -8.612619 15.591196 -15.592283 8.611533 -15.592283 -0.00141889 C -15.592283 -8.610454 -8.612619 -15.590117 0.000332507 -15.590117 C 8.609367 -15.590117 15.589031 -8.610454 15.589031 -0.00141889 Z M 15.589031 -0.00141889 " transform="matrix(0.997317,0,0,-0.997317,72.905918,135.541554)"/>
<g style="fill:rgb(0%,0%,0%);fill-opacity:1;">
  <use xlink:href="#glyph0-1" x="67.437001" y="137.067768"/>
</g>
<g style="fill:rgb(0%,0%,0%);fill-opacity:1;">
  <use xlink:href="#glyph1-4" x="73.655133" y="138.699728"/>
</g>
<path style="fill-rule:nonzero;fill:rgb(89.99939%,100%,89.99939%);fill-opacity:1;stroke-width:0.79701;stroke-linecap:butt;stroke-linejoin:miter;stroke:rgb(0%,50%,0%);stroke-opacity:1;stroke-miterlimit:10;" d="M 116.183136 77.953823 C 116.183136 87.326626 108.584625 94.92122 99.215739 94.92122 C 89.842936 94.92122 82.244425 87.326626 82.244425 77.953823 C 82.244425 68.58102 89.842936 60.986426 99.215739 60.986426 C 108.584625 60.986426 116.183136 68.58102 116.183136 77.953823 Z M 116.183136 77.953823 " transform="matrix(0.997317,0,0,-0.997317,72.905918,135.541554)"/>
<g style="fill:rgb(0%,0%,0%);fill-opacity:1;">
  <use xlink:href="#glyph0-2" x="163.333735" y="62.087256"/>
</g>
<g style="fill:rgb(0%,0%,0%);fill-opacity:1;">
  <use xlink:href="#glyph1-5" x="169.084694" y="56.352593"/>
  <use xlink:href="#glyph1-1" x="172.367519" y="56.352593"/>
  <use xlink:href="#glyph1-6" x="176.588294" y="56.352593"/>
</g>
<g style="fill:rgb(0%,0%,0%);fill-opacity:1;">
  <use xlink:href="#glyph1-1" x="169.084694" y="65.203024"/>
</g>
<path style="fill-rule:nonzero;fill:rgb(89.99939%,100%,89.99939%);fill-opacity:1;stroke-width:0.79701;stroke-linecap:butt;stroke-linejoin:miter;stroke:rgb(0%,50%,0%);stroke-opacity:1;stroke-miterlimit:10;" d="M 116.183136 46.77251 C 116.183136 56.145312 108.584625 63.739907 99.215739 63.739907 C 89.842936 63.739907 82.244425 56.145312 82.244425 46.77251 C 82.244425 37.399707 89.842936 29.805112 99.215739 29.805112 C 108.584625 29.805112 116.183136 37.399707 116.183136 46.77251 Z M 116.183136 46.77251 " transform="matrix(0.997317,0,0,-0.997317,72.905918,135.541554)"/>
<g style="fill:rgb(0%,0%,0%);fill-opacity:1;">
  <use xlink:href="#glyph0-2" x="163.333735" y="93.185268"/>
</g>
<g style="fill:rgb(0%,0%,0%);fill-opacity:1;">
  <use xlink:href="#glyph1-5" x="169.084694" y="87.450605"/>
  <use xlink:href="#glyph1-1" x="172.367519" y="87.450605"/>
  <use xlink:href="#glyph1-6" x="176.588294" y="87.450605"/>
</g>
<g style="fill:rgb(0%,0%,0%);fill-opacity:1;">
  <use xlink:href="#glyph1-2" x="169.084694" y="96.301036"/>
</g>
<path style="fill-rule:nonzero;fill:rgb(89.99939%,100%,89.99939%);fill-opacity:1;stroke-width:0.79701;stroke-linecap:butt;stroke-linejoin:miter;stroke:rgb(0%,50%,0%);stroke-opacity:1;stroke-miterlimit:10;" d="M 116.183136 15.591196 C 116.183136 24.963999 108.584625 32.558593 99.215739 32.558593 C 89.842936 32.558593 82.244425 24.963999 82.244425 15.591196 C 82.244425 6.218393 89.842936 -1.376201 99.215739 -1.376201 C 108.584625 -1.376201 116.183136 6.218393 116.183136 15.591196 Z M 116.183136 15.591196 " transform="matrix(0.997317,0,0,-0.997317,72.905918,135.541554)"/>
<g style="fill:rgb(0%,0%,0%);fill-opacity:1;">
  <use xlink:href="#glyph0-2" x="163.333735" y="124.282821"/>
</g>
<g style="fill:rgb(0%,0%,0%);fill-opacity:1;">
  <use xlink:href="#glyph1-5" x="169.084694" y="118.548158"/>
  <use xlink:href="#glyph1-1" x="172.367519" y="118.548158"/>
  <use xlink:href="#glyph1-6" x="176.588294" y="118.548158"/>
</g>
<g style="fill:rgb(0%,0%,0%);fill-opacity:1;">
  <use xlink:href="#glyph1-3" x="169.084694" y="127.398589"/>
</g>
<path style="fill-rule:nonzero;fill:rgb(100%,89.99939%,89.99939%);fill-opacity:1;stroke-width:0.79701;stroke-linecap:butt;stroke-linejoin:miter;stroke:rgb(100%,39.99939%,39.99939%);stroke-opacity:1;stroke-miterlimit:10;" d="M 214.019844 46.77251 C 214.019844 55.381545 207.04018 62.361208 198.427229 62.361208 C 189.818194 62.361208 182.83853 55.381545 182.83853 46.77251 C 182.83853 38.159558 189.818194 31.179895 198.427229 31.179895 C 207.04018 31.179895 214.019844 38.159558 214.019844 46.77251 Z M 214.019844 46.77251 " transform="matrix(0.997317,0,0,-0.997317,72.905918,135.541554)"/>
<g style="fill:rgb(0%,0%,0%);fill-opacity:1;">
  <use xlink:href="#glyph2-1" x="268.685653" y="91.615002"/>
</g>
<g style="fill:rgb(0%,0%,0%);fill-opacity:1;">
  <use xlink:href="#glyph0-3" x="267.938911" y="91.615002"/>
</g>
<path style="fill:none;stroke-width:0.3985;stroke-linecap:butt;stroke-linejoin:miter;stroke:rgb(50%,50%,50%);stroke-opacity:1;stroke-miterlimit:10;" d="M -31.180981 93.546438 L -18.514184 93.546438 " transform="matrix(0.997317,0,0,-0.997317,72.905918,135.541554)"/>
<path style="fill-rule:nonzero;fill:rgb(50%,50%,50%);fill-opacity:1;stroke-width:0.3985;stroke-linecap:butt;stroke-linejoin:miter;stroke:rgb(50%,50%,50%);stroke-opacity:1;stroke-miterlimit:10;" d="M 3.418635 0.00189816 L 0.641653 1.047673 L 1.558175 0.00189816 L 0.641653 -1.047793 Z M 3.418635 0.00189816 " transform="matrix(0.997317,0,0,-0.997317,52.985068,42.247987)"/>
<g style="fill:rgb(50%,50%,50%);fill-opacity:1;">
  <use xlink:href="#glyph0-1" x="26.697356" y="43.774201"/>
</g>
<g style="fill:rgb(50%,50%,50%);fill-opacity:1;">
  <use xlink:href="#glyph1-1" x="32.915488" y="45.406161"/>
</g>
<path style="fill:none;stroke-width:0.3985;stroke-linecap:butt;stroke-linejoin:miter;stroke:rgb(50%,50%,50%);stroke-opacity:1;stroke-miterlimit:10;" d="M -31.180981 62.361208 L -18.514184 62.361208 " transform="matrix(0.997317,0,0,-0.997317,72.905918,135.541554)"/>
<path style="fill-rule:nonzero;fill:rgb(50%,50%,50%);fill-opacity:1;stroke-width:0.3985;stroke-linecap:butt;stroke-linejoin:miter;stroke:rgb(50%,50%,50%);stroke-opacity:1;stroke-miterlimit:10;" d="M 3.418635 -0.00167203 L 0.641653 1.048019 L 1.558175 -0.00167203 L 0.641653 -1.047447 Z M 3.418635 -0.00167203 " transform="matrix(0.997317,0,0,-0.997317,52.985068,73.345989)"/>
<g style="fill:rgb(50%,50%,50%);fill-opacity:1;">
  <use xlink:href="#glyph0-1" x="26.697356" y="74.872193"/>
</g>
<g style="fill:rgb(50%,50%,50%);fill-opacity:1;">
  <use xlink:href="#glyph1-2" x="32.915488" y="76.504153"/>
</g>
<path style="fill:none;stroke-width:0.3985;stroke-linecap:butt;stroke-linejoin:miter;stroke:rgb(50%,50%,50%);stroke-opacity:1;stroke-miterlimit:10;" d="M -31.180981 31.179895 L -18.514184 31.179895 " transform="matrix(0.997317,0,0,-0.997317,72.905918,135.541554)"/>
<path style="fill-rule:nonzero;fill:rgb(50%,50%,50%);fill-opacity:1;stroke-width:0.3985;stroke-linecap:butt;stroke-linejoin:miter;stroke:rgb(50%,50%,50%);stroke-opacity:1;stroke-miterlimit:10;" d="M 3.418635 -0.00176546 L 0.641653 1.047926 L 1.558175 -0.00176546 L 0.641653 -1.04754 Z M 3.418635 -0.00176546 " transform="matrix(0.997317,0,0,-0.997317,52.985068,104.443552)"/>
<g style="fill:rgb(50%,50%,50%);fill-opacity:1;">
  <use xlink:href="#glyph0-1" x="26.697356" y="105.969766"/>
</g>
<g style="fill:rgb(50%,50%,50%);fill-opacity:1;">
  <use xlink:href="#glyph1-3" x="32.915488" y="107.601726"/>
</g>
<path style="fill:none;stroke-width:0.3985;stroke-linecap:butt;stroke-linejoin:miter;stroke:rgb(50%,50%,50%);stroke-opacity:1;stroke-miterlimit:10;" d="M -31.180981 -0.00141889 L -18.514184 -0.00141889 " transform="matrix(0.997317,0,0,-0.997317,72.905918,135.541554)"/>
<path style="fill-rule:nonzero;fill:rgb(50%,50%,50%);fill-opacity:1;stroke-width:0.3985;stroke-linecap:butt;stroke-linejoin:miter;stroke:rgb(50%,50%,50%);stroke-opacity:1;stroke-miterlimit:10;" d="M 3.418635 -0.00141889 L 0.641653 1.048272 L 1.558175 -0.00141889 L 0.641653 -1.047193 Z M 3.418635 -0.00141889 " transform="matrix(0.997317,0,0,-0.997317,52.985068,135.541554)"/>
<g style="fill:rgb(50%,50%,50%);fill-opacity:1;">
  <use xlink:href="#glyph0-1" x="26.697356" y="137.067768"/>
</g>
<g style="fill:rgb(50%,50%,50%);fill-opacity:1;">
  <use xlink:href="#glyph1-4" x="32.915488" y="138.699728"/>
</g>
<path style="fill:none;stroke-width:0.3985;stroke-linecap:butt;stroke-linejoin:miter;stroke:rgb(50%,50%,50%);stroke-opacity:1;stroke-miterlimit:10;" d="M 15.796619 91.063213 L 79.561445 81.040229 " transform="matrix(0.997317,0,0,-0.997317,72.905918,135.541554)"/>
<path style="fill-rule:nonzero;fill:rgb(50%,50%,50%);fill-opacity:1;stroke-width:0.3985;stroke-linecap:butt;stroke-linejoin:miter;stroke:rgb(50%,50%,50%);stroke-opacity:1;stroke-miterlimit:10;" d="M 3.416169 0.000810022 L 0.642679 1.047881 L 1.560891 -0.00128686 L 0.642565 -1.045642 Z M 3.416169 0.000810022 " transform="matrix(0.98519,0.154814,0.154814,-0.98519,150.817894,54.49146)"/>
<path style="fill:none;stroke-width:0.3985;stroke-linecap:butt;stroke-linejoin:miter;stroke:rgb(50%,50%,50%);stroke-opacity:1;stroke-miterlimit:10;" d="M 14.461004 86.727362 L 81.222151 55.252292 " transform="matrix(0.997317,0,0,-0.997317,72.905918,135.541554)"/>
<path style="fill-rule:nonzero;fill:rgb(50%,50%,50%);fill-opacity:1;stroke-width:0.3985;stroke-linecap:butt;stroke-linejoin:miter;stroke:rgb(50%,50%,50%);stroke-opacity:1;stroke-miterlimit:10;" d="M 3.418237 -0.000890907 L 0.642516 1.046292 L 1.559259 0.00182043 L 0.641421 -1.045761 Z M 3.418237 -0.000890907 " transform="matrix(0.902073,0.425246,0.425246,-0.902073,152.59266,79.815136)"/>
<path style="fill:none;stroke-width:0.3985;stroke-linecap:butt;stroke-linejoin:miter;stroke:rgb(50%,50%,50%);stroke-opacity:1;stroke-miterlimit:10;" d="M 12.573127 83.664457 L 83.572206 27.881984 " transform="matrix(0.997317,0,0,-0.997317,72.905918,135.541554)"/>
<path style="fill-rule:nonzero;fill:rgb(50%,50%,50%);fill-opacity:1;stroke-width:0.3985;stroke-linecap:butt;stroke-linejoin:miter;stroke:rgb(50%,50%,50%);stroke-opacity:1;stroke-miterlimit:10;" d="M 3.41645 0.000519857 L 0.643414 1.044614 L 1.558594 0.000298818 L 0.643415 -1.047537 Z M 3.41645 0.000519857 " transform="matrix(0.78418,0.616142,0.616142,-0.78418,155.109629,106.836794)"/>
<path style="fill:none;stroke-width:0.3985;stroke-linecap:butt;stroke-linejoin:miter;stroke:rgb(50%,50%,50%);stroke-opacity:1;stroke-miterlimit:10;" d="M 15.796619 64.844433 L 79.561445 74.867417 " transform="matrix(0.997317,0,0,-0.997317,72.905918,135.541554)"/>
<path style="fill-rule:nonzero;fill:rgb(50%,50%,50%);fill-opacity:1;stroke-width:0.3985;stroke-linecap:butt;stroke-linejoin:miter;stroke:rgb(50%,50%,50%);stroke-opacity:1;stroke-miterlimit:10;" d="M 3.416202 -0.000596501 L 0.642598 1.045856 L 1.560925 0.00150038 L 0.642713 -1.047668 Z M 3.416202 -0.000596501 " transform="matrix(0.98519,-0.154814,-0.154814,-0.98519,150.817894,61.102505)"/>
<path style="fill:none;stroke-width:0.3985;stroke-linecap:butt;stroke-linejoin:miter;stroke:rgb(50%,50%,50%);stroke-opacity:1;stroke-miterlimit:10;" d="M 15.796619 59.8819 L 79.561445 49.858915 " transform="matrix(0.997317,0,0,-0.997317,72.905918,135.541554)"/>
<path style="fill-rule:nonzero;fill:rgb(50%,50%,50%);fill-opacity:1;stroke-width:0.3985;stroke-linecap:butt;stroke-linejoin:miter;stroke:rgb(50%,50%,50%);stroke-opacity:1;stroke-miterlimit:10;" d="M 3.416114 0.00116228 L 0.642624 1.048234 L 1.560836 -0.000934597 L 0.642509 -1.04529 Z M 3.416114 0.00116228 " transform="matrix(0.98519,0.154814,0.154814,-0.98519,150.817894,85.589472)"/>
<path style="fill:none;stroke-width:0.3985;stroke-linecap:butt;stroke-linejoin:miter;stroke:rgb(50%,50%,50%);stroke-opacity:1;stroke-miterlimit:10;" d="M 14.461004 55.546048 L 81.222151 24.070978 " transform="matrix(0.997317,0,0,-0.997317,72.905918,135.541554)"/>
<path style="fill-rule:nonzero;fill:rgb(50%,50%,50%);fill-opacity:1;stroke-width:0.3985;stroke-linecap:butt;stroke-linejoin:miter;stroke:rgb(50%,50%,50%);stroke-opacity:1;stroke-miterlimit:10;" d="M 3.418273 -0.000966377 L 0.642552 1.046216 L 1.559295 0.00174496 L 0.641456 -1.045836 Z M 3.418273 -0.000966377 " transform="matrix(0.902073,0.425246,0.425246,-0.902073,152.59266,110.912709)"/>
<path style="fill:none;stroke-width:0.3985;stroke-linecap:butt;stroke-linejoin:miter;stroke:rgb(50%,50%,50%);stroke-opacity:1;stroke-miterlimit:10;" d="M 14.461004 37.998971 L 81.222151 69.470124 " transform="matrix(0.997317,0,0,-0.997317,72.905918,135.541554)"/>
<path style="fill-rule:nonzero;fill:rgb(50%,50%,50%);fill-opacity:1;stroke-width:0.3985;stroke-linecap:butt;stroke-linejoin:miter;stroke:rgb(50%,50%,50%);stroke-opacity:1;stroke-miterlimit:10;" d="M 3.418481 0.00140895 L 0.641665 1.046279 L 1.559504 -0.00130238 L 0.64276 -1.045774 Z M 3.418481 0.00140895 " transform="matrix(0.902073,-0.425246,-0.425246,-0.902073,152.59266,66.876842)"/>
<path style="fill:none;stroke-width:0.3985;stroke-linecap:butt;stroke-linejoin:miter;stroke:rgb(50%,50%,50%);stroke-opacity:1;stroke-miterlimit:10;" d="M 15.796619 33.663119 L 79.561445 43.686104 " transform="matrix(0.997317,0,0,-0.997317,72.905918,135.541554)"/>
<path style="fill-rule:nonzero;fill:rgb(50%,50%,50%);fill-opacity:1;stroke-width:0.3985;stroke-linecap:butt;stroke-linejoin:miter;stroke:rgb(50%,50%,50%);stroke-opacity:1;stroke-miterlimit:10;" d="M 3.416295 -0.000241579 L 0.642687 1.046144 L 1.560421 -0.00205366 L 0.642846 -1.047365 Z M 3.416295 -0.000241579 " transform="matrix(0.9852,-0.154794,-0.154794,-0.9852,150.817824,92.200457)"/>
<path style="fill:none;stroke-width:0.3985;stroke-linecap:butt;stroke-linejoin:miter;stroke:rgb(50%,50%,50%);stroke-opacity:1;stroke-miterlimit:10;" d="M 15.796619 28.700586 L 79.561445 18.677602 " transform="matrix(0.997317,0,0,-0.997317,72.905918,135.541554)"/>
<path style="fill-rule:nonzero;fill:rgb(50%,50%,50%);fill-opacity:1;stroke-width:0.3985;stroke-linecap:butt;stroke-linejoin:miter;stroke:rgb(50%,50%,50%);stroke-opacity:1;stroke-miterlimit:10;" d="M 3.416127 0.00107986 L 0.642637 1.048151 L 1.560849 -0.00101702 L 0.642522 -1.045372 Z M 3.416127 0.00107986 " transform="matrix(0.98519,0.154814,0.154814,-0.98519,150.817894,116.687045)"/>
<path style="fill:none;stroke-width:0.3985;stroke-linecap:butt;stroke-linejoin:miter;stroke:rgb(50%,50%,50%);stroke-opacity:1;stroke-miterlimit:10;" d="M 12.573127 9.876646 L 83.572206 65.663035 " transform="matrix(0.997317,0,0,-0.997317,72.905918,135.541554)"/>
<path style="fill-rule:nonzero;fill:rgb(50%,50%,50%);fill-opacity:1;stroke-width:0.3985;stroke-linecap:butt;stroke-linejoin:miter;stroke:rgb(50%,50%,50%);stroke-opacity:1;stroke-miterlimit:10;" d="M 3.416759 -0.000127259 L 0.643724 1.04793 L 1.558902 0.0000937796 L 0.641303 -1.047301 Z M 3.416759 -0.000127259 " transform="matrix(0.78418,-0.616142,-0.616142,-0.78418,155.109629,70.952767)"/>
<path style="fill:none;stroke-width:0.3985;stroke-linecap:butt;stroke-linejoin:miter;stroke:rgb(50%,50%,50%);stroke-opacity:1;stroke-miterlimit:10;" d="M 14.461004 6.817657 L 81.222151 38.288811 " transform="matrix(0.997317,0,0,-0.997317,72.905918,135.541554)"/>
<path style="fill-rule:nonzero;fill:rgb(50%,50%,50%);fill-opacity:1;stroke-width:0.3985;stroke-linecap:butt;stroke-linejoin:miter;stroke:rgb(50%,50%,50%);stroke-opacity:1;stroke-miterlimit:10;" d="M 3.416963 -0.00181147 L 0.641817 1.046601 L 1.559656 -0.000979844 L 0.642912 -1.045451 Z M 3.416963 -0.00181147 " transform="matrix(0.902073,-0.425246,-0.425246,-0.902073,152.59266,97.974854)"/>
<path style="fill:none;stroke-width:0.3985;stroke-linecap:butt;stroke-linejoin:miter;stroke:rgb(50%,50%,50%);stroke-opacity:1;stroke-miterlimit:10;" d="M 15.796619 2.481806 L 79.561445 12.504791 " transform="matrix(0.997317,0,0,-0.997317,72.905918,135.541554)"/>
<path style="fill-rule:nonzero;fill:rgb(50%,50%,50%);fill-opacity:1;stroke-width:0.3985;stroke-linecap:butt;stroke-linejoin:miter;stroke:rgb(50%,50%,50%);stroke-opacity:1;stroke-miterlimit:10;" d="M 3.416243 -0.000336546 L 0.642639 1.046116 L 1.560358 -0.00210909 L 0.642754 -1.047408 Z M 3.416243 -0.000336546 " transform="matrix(0.98519,-0.154814,-0.154814,-0.98519,150.817894,123.29808)"/>
<path style="fill:none;stroke-width:0.3985;stroke-linecap:butt;stroke-linejoin:miter;stroke:rgb(50%,50%,50%);stroke-opacity:1;stroke-miterlimit:10;" d="M 115.77971 72.748451 L 180.766565 52.322556 " transform="matrix(0.997317,0,0,-0.997317,72.905918,135.541554)"/>
<path style="fill-rule:nonzero;fill:rgb(50%,50%,50%);fill-opacity:1;stroke-width:0.3985;stroke-linecap:butt;stroke-linejoin:miter;stroke:rgb(50%,50%,50%);stroke-opacity:1;stroke-miterlimit:10;" d="M 3.419342 -0.000314794 L 0.642568 1.048515 L 1.559805 -0.00172657 L 0.643663 -1.045159 Z M 3.419342 -0.000314794 " transform="matrix(0.951371,0.299016,0.299016,-0.951371,251.797813,82.922576)"/>
<path style="fill:none;stroke-width:0.3985;stroke-linecap:butt;stroke-linejoin:miter;stroke:rgb(50%,50%,50%);stroke-opacity:1;stroke-miterlimit:10;" d="M 116.578729 46.77251 L 179.912712 46.77251 " transform="matrix(0.997317,0,0,-0.997317,72.905918,135.541554)"/>
<path style="fill-rule:nonzero;fill:rgb(50%,50%,50%);fill-opacity:1;stroke-width:0.3985;stroke-linecap:butt;stroke-linejoin:miter;stroke:rgb(50%,50%,50%);stroke-opacity:1;stroke-miterlimit:10;" d="M 3.417871 0.000479634 L 0.644806 1.046254 L 1.557411 0.000479634 L 0.644806 -1.045295 Z M 3.417871 0.000479634 " transform="matrix(0.997317,0,0,-0.997317,250.880361,88.89501)"/>
<path style="fill:none;stroke-width:0.3985;stroke-linecap:butt;stroke-linejoin:miter;stroke:rgb(50%,50%,50%);stroke-opacity:1;stroke-miterlimit:10;" d="M 115.77971 20.796568 L 180.766565 41.222463 " transform="matrix(0.997317,0,0,-0.997317,72.905918,135.541554)"/>
<path style="fill-rule:nonzero;fill:rgb(50%,50%,50%);fill-opacity:1;stroke-width:0.3985;stroke-linecap:butt;stroke-linejoin:miter;stroke:rgb(50%,50%,50%);stroke-opacity:1;stroke-miterlimit:10;" d="M 3.419615 0.00121187 L 0.643946 1.045973 L 1.558928 -0.00115977 L 0.642904 -1.047674 Z M 3.419615 0.00121187 " transform="matrix(0.951391,-0.298996,-0.298996,-0.951391,251.797754,94.867353)"/>
<path style="fill:none;stroke-width:0.79701;stroke-linecap:butt;stroke-linejoin:miter;stroke:rgb(50%,50%,50%);stroke-opacity:1;stroke-miterlimit:10;" d="M 214.415436 46.77251 L 232.24452 46.77251 " transform="matrix(0.997317,0,0,-0.997317,72.905918,135.541554)"/>
<path style="fill-rule:nonzero;fill:rgb(50%,50%,50%);fill-opacity:1;stroke-width:0.79701;stroke-linecap:butt;stroke-linejoin:miter;stroke:rgb(50%,50%,50%);stroke-opacity:1;stroke-miterlimit:10;" d="M 3.846938 0.000479634 L 1.285378 0.971836 L 2.147065 0.000479634 L 1.285378 -0.974793 Z M 3.846938 0.000479634 " transform="matrix(0.997317,0,0,-0.997317,302.585258,88.89501)"/>
<g style="fill:rgb(50%,50%,50%);fill-opacity:1;">
  <use xlink:href="#glyph3-1" x="311.924693" y="91.185249"/>
  <use xlink:href="#glyph3-2" x="317.364603" y="91.185249"/>
  <use xlink:href="#glyph3-3" x="323.413783" y="91.185249"/>
  <use xlink:href="#glyph3-4" x="327.646033" y="91.185249"/>
  <use xlink:href="#glyph3-2" x="333.695213" y="91.185249"/>
  <use xlink:href="#glyph3-3" x="339.744392" y="91.185249"/>
</g>
<g style="fill:rgb(0%,0%,0%);fill-opacity:1;">
  <use xlink:href="#glyph4-1" x="110.413707" y="94.039231"/>
</g>
<g style="fill:rgb(0%,0%,0%);fill-opacity:1;">
  <use xlink:href="#glyph1-5" x="123.057035" y="89.712431"/>
  <use xlink:href="#glyph1-1" x="126.33986" y="89.712431"/>
  <use xlink:href="#glyph1-6" x="130.560635" y="89.712431"/>
</g>
<g style="fill:rgb(0%,0%,0%);fill-opacity:1;">
  <use xlink:href="#glyph4-1" x="209.361344" y="94.039231"/>
</g>
<g style="fill:rgb(0%,0%,0%);fill-opacity:1;">
  <use xlink:href="#glyph1-5" x="222.004671" y="89.712431"/>
  <use xlink:href="#glyph1-2" x="225.287496" y="89.712431"/>
  <use xlink:href="#glyph1-6" x="229.508271" y="89.712431"/>
</g>
<g style="fill:rgb(0%,0%,69.999695%);fill-opacity:1;">
  <use xlink:href="#glyph5-1" x="40.385732" y="19.448311"/>
  <use xlink:href="#glyph5-2" x="45.129334" y="19.448311"/>
  <use xlink:href="#glyph5-3" x="52.081539" y="19.448311"/>
  <use xlink:href="#glyph5-4" x="59.033743" y="19.448311"/>
  <use xlink:href="#glyph5-5" x="65.985948" y="19.448311"/>
</g>
<g style="fill:rgb(0%,0%,69.999695%);fill-opacity:1;">
  <use xlink:href="#glyph5-6" x="75.016199" y="19.448311"/>
  <use xlink:href="#glyph5-7" x="82.545034" y="19.448311"/>
</g>
<g style="fill:rgb(0%,0%,69.999695%);fill-opacity:1;">
  <use xlink:href="#glyph5-8" x="88.289579" y="19.448311"/>
</g>
<g style="fill:rgb(0%,0%,69.999695%);fill-opacity:1;">
  <use xlink:href="#glyph5-9" x="94.545475" y="19.448311"/>
  <use xlink:href="#glyph5-10" x="100.27914" y="19.448311"/>
</g>
<g style="fill:rgb(0%,59.999084%,0%);fill-opacity:1;">
  <use xlink:href="#glyph5-11" x="134.638648" y="19.491834"/>
  <use xlink:href="#glyph5-12" x="144.430486" y="19.491834"/>
  <use xlink:href="#glyph5-13" x="147.901149" y="19.491834"/>
  <use xlink:href="#glyph5-13" x="154.853353" y="19.491834"/>
  <use xlink:href="#glyph5-9" x="161.805558" y="19.491834"/>
  <use xlink:href="#glyph5-2" x="167.539223" y="19.491834"/>
</g>
<g style="fill:rgb(0%,59.999084%,0%);fill-opacity:1;">
  <use xlink:href="#glyph5-6" x="178.658399" y="19.491834"/>
  <use xlink:href="#glyph5-7" x="186.187234" y="19.491834"/>
</g>
<g style="fill:rgb(0%,59.999084%,0%);fill-opacity:1;">
  <use xlink:href="#glyph5-8" x="191.931779" y="19.491834"/>
</g>
<g style="fill:rgb(0%,59.999084%,0%);fill-opacity:1;">
  <use xlink:href="#glyph5-9" x="198.187675" y="19.491834"/>
  <use xlink:href="#glyph5-10" x="203.92134" y="19.491834"/>
</g>
<g style="fill:rgb(69.999695%,0%,0%);fill-opacity:1;">
  <use xlink:href="#glyph5-14" x="233.521041" y="19.50815"/>
  <use xlink:href="#glyph5-4" x="242.921205" y="19.50815"/>
  <use xlink:href="#glyph5-5" x="249.87341" y="19.50815"/>
  <use xlink:href="#glyph5-3" x="254.736689" y="19.50815"/>
  <use xlink:href="#glyph5-4" x="261.688894" y="19.50815"/>
  <use xlink:href="#glyph5-5" x="268.641099" y="19.50815"/>
</g>
<g style="fill:rgb(69.999695%,0%,0%);fill-opacity:1;">
  <use xlink:href="#glyph5-6" x="277.671349" y="19.50815"/>
  <use xlink:href="#glyph5-7" x="285.200184" y="19.50815"/>
</g>
<g style="fill:rgb(69.999695%,0%,0%);fill-opacity:1;">
  <use xlink:href="#glyph5-8" x="290.944729" y="19.50815"/>
</g>
<g style="fill:rgb(69.999695%,0%,0%);fill-opacity:1;">
  <use xlink:href="#glyph5-9" x="297.200625" y="19.50815"/>
  <use xlink:href="#glyph5-10" x="302.93429" y="19.50815"/>
</g>
<path style="fill-rule:nonzero;fill:rgb(97.499084%,97.499084%,97.499084%);fill-opacity:1;stroke-width:0.3985;stroke-linecap:butt;stroke-linejoin:miter;stroke:rgb(69.999695%,69.999695%,69.999695%);stroke-opacity:1;stroke-miterlimit:10;" d="M 259.105649 -16.161964 L -60.678088 -16.161964 C -62.879306 -16.161964 -64.665348 -17.944089 -64.665348 -20.145307 L -64.665348 -56.390989 C -64.665348 -58.592207 -62.879306 -60.374333 -60.678088 -60.374333 L 259.105649 -60.374333 C 261.306868 -60.374333 263.092909 -58.592207 263.092909 -56.390989 L 263.092909 -20.145307 C 263.092909 -17.944089 261.306868 -16.161964 259.105649 -16.161964 Z M 259.105649 -16.161964 " transform="matrix(0.997317,0,0,-0.997317,72.905918,135.541554)"/>
<g style="fill:rgb(0%,0%,0%);fill-opacity:1;">
  <use xlink:href="#glyph6-1" x="16.364343" y="168.430627"/>
  <use xlink:href="#glyph6-2" x="24.173969" y="168.430627"/>
  <use xlink:href="#glyph6-3" x="28.883591" y="168.430627"/>
  <use xlink:href="#glyph6-4" x="34.119816" y="168.430627"/>
  <use xlink:href="#glyph6-5" x="37.92527" y="168.430627"/>
  <use xlink:href="#glyph6-6" x="43.479444" y="168.430627"/>
  <use xlink:href="#glyph6-7" x="48.556695" y="168.430627"/>
  <use xlink:href="#glyph6-8" x="52.998047" y="168.430627"/>
  <use xlink:href="#glyph6-9" x="56.167603" y="168.430627"/>
</g>
<g style="fill:rgb(0%,0%,0%);fill-opacity:1;">
  <use xlink:href="#glyph6-5" x="61.572738" y="168.430627"/>
  <use xlink:href="#glyph6-7" x="67.126913" y="168.430627"/>
  <use xlink:href="#glyph6-8" x="71.568265" y="168.430627"/>
  <use xlink:href="#glyph6-10" x="74.73782" y="168.430627"/>
  <use xlink:href="#glyph6-11" x="80.450969" y="168.430627"/>
  <use xlink:href="#glyph6-12" x="86.800016" y="168.430627"/>
</g>
<g style="fill:rgb(0%,0%,0%);fill-opacity:1;">
  <use xlink:href="#glyph7-1" x="99.895552" y="168.430627"/>
</g>
<g style="fill:rgb(0%,0%,0%);fill-opacity:1;">
  <use xlink:href="#glyph8-1" x="104.953227" y="164.824967"/>
</g>
<g style="fill:rgb(0%,0%,0%);fill-opacity:1;">
  <use xlink:href="#glyph9-1" x="108.058214" y="164.824967"/>
</g>
<g style="fill:rgb(0%,0%,0%);fill-opacity:1;">
  <use xlink:href="#glyph8-2" x="111.384017" y="164.824967"/>
</g>
<g style="fill:rgb(0%,0%,0%);fill-opacity:1;">
  <use xlink:href="#glyph10-1" x="117.745703" y="168.430627"/>
</g>
<g style="fill:rgb(0%,0%,0%);fill-opacity:1;">
  <use xlink:href="#glyph7-2" x="128.233569" y="168.430627"/>
</g>
<g style="fill:rgb(0%,0%,0%);fill-opacity:1;">
  <use xlink:href="#glyph8-1" x="138.997502" y="164.824967"/>
</g>
<g style="fill:rgb(0%,0%,0%);fill-opacity:1;">
  <use xlink:href="#glyph9-1" x="142.10249" y="164.824967"/>
</g>
<g style="fill:rgb(0%,0%,0%);fill-opacity:1;">
  <use xlink:href="#glyph8-2" x="145.428293" y="164.824967"/>
</g>
<g style="fill:rgb(0%,0%,0%);fill-opacity:1;">
  <use xlink:href="#glyph7-3" x="150.686019" y="168.430627"/>
</g>
<g style="fill:rgb(0%,0%,0%);fill-opacity:1;">
  <use xlink:href="#glyph8-1" x="155.93805" y="164.824967"/>
</g>
<g style="fill:rgb(0%,0%,0%);fill-opacity:1;">
  <use xlink:href="#glyph9-1" x="159.043037" y="164.824967"/>
</g>
<g style="fill:rgb(0%,0%,0%);fill-opacity:1;">
  <use xlink:href="#glyph11-1" x="162.36884" y="164.824967"/>
</g>
<g style="fill:rgb(0%,0%,0%);fill-opacity:1;">
  <use xlink:href="#glyph8-3" x="168.578814" y="164.824967"/>
  <use xlink:href="#glyph8-2" x="172.536288" y="164.824967"/>
</g>
<g style="fill:rgb(0%,0%,0%);fill-opacity:1;">
  <use xlink:href="#glyph10-2" x="178.349091" y="168.430627"/>
</g>
<g style="fill:rgb(0%,0%,0%);fill-opacity:1;">
  <use xlink:href="#glyph7-4" x="188.284972" y="168.430627"/>
</g>
<g style="fill:rgb(0%,0%,0%);fill-opacity:1;">
  <use xlink:href="#glyph8-1" x="192.549141" y="164.824967"/>
</g>
<g style="fill:rgb(0%,0%,0%);fill-opacity:1;">
  <use xlink:href="#glyph9-1" x="195.654128" y="164.824967"/>
</g>
<g style="fill:rgb(0%,0%,0%);fill-opacity:1;">
  <use xlink:href="#glyph8-2" x="198.979931" y="164.824967"/>
</g>
<g style="fill:rgb(0%,0%,0%);fill-opacity:1;">
  <use xlink:href="#glyph6-1" x="16.364323" y="184.328091"/>
</g>
<g style="fill:rgb(0%,0%,0%);fill-opacity:1;">
  <use xlink:href="#glyph6-10" x="23.865936" y="184.328091"/>
  <use xlink:href="#glyph6-13" x="29.579085" y="184.328091"/>
  <use xlink:href="#glyph6-7" x="34.089989" y="184.328091"/>
  <use xlink:href="#glyph6-4" x="38.531341" y="184.328091"/>
  <use xlink:href="#glyph6-5" x="42.336795" y="184.328091"/>
  <use xlink:href="#glyph6-6" x="47.890969" y="184.328091"/>
  <use xlink:href="#glyph6-7" x="52.968219" y="184.328091"/>
  <use xlink:href="#glyph6-8" x="57.409572" y="184.328091"/>
  <use xlink:href="#glyph6-9" x="60.579127" y="184.328091"/>
</g>
<g style="fill:rgb(0%,0%,0%);fill-opacity:1;">
  <use xlink:href="#glyph6-5" x="65.974327" y="184.328091"/>
  <use xlink:href="#glyph6-7" x="71.528501" y="184.328091"/>
  <use xlink:href="#glyph6-8" x="75.969853" y="184.328091"/>
  <use xlink:href="#glyph6-10" x="79.139409" y="184.328091"/>
  <use xlink:href="#glyph6-11" x="84.852558" y="184.328091"/>
  <use xlink:href="#glyph6-12" x="91.201605" y="184.328091"/>
</g>
<g style="fill:rgb(0%,0%,0%);fill-opacity:1;">
  <use xlink:href="#glyph7-3" x="104.297131" y="184.328091"/>
</g>
<g style="fill:rgb(0%,0%,0%);fill-opacity:1;">
  <use xlink:href="#glyph8-1" x="109.549163" y="180.722431"/>
</g>
<g style="fill:rgb(0%,0%,0%);fill-opacity:1;">
  <use xlink:href="#glyph9-1" x="112.65415" y="180.722431"/>
</g>
<g style="fill:rgb(0%,0%,0%);fill-opacity:1;">
  <use xlink:href="#glyph8-2" x="115.979953" y="180.722431"/>
</g>
<g style="fill:rgb(0%,0%,0%);fill-opacity:1;">
  <use xlink:href="#glyph10-1" x="122.341639" y="184.328091"/>
</g>
<g style="fill:rgb(0%,0%,0%);fill-opacity:1;">
  <use xlink:href="#glyph7-5" x="132.829505" y="184.328091"/>
</g>
<g style="fill:rgb(0%,0%,0%);fill-opacity:1;">
  <use xlink:href="#glyph12-1" x="138.863503" y="176.279932"/>
</g>
<g style="fill:rgb(0%,0%,0%);fill-opacity:1;">
  <use xlink:href="#glyph7-1" x="143.417492" y="184.328091"/>
</g>
<g style="fill:rgb(0%,0%,0%);fill-opacity:1;">
  <use xlink:href="#glyph8-1" x="148.475166" y="180.722431"/>
</g>
<g style="fill:rgb(0%,0%,0%);fill-opacity:1;">
  <use xlink:href="#glyph9-1" x="151.580153" y="180.722431"/>
</g>
<g style="fill:rgb(0%,0%,0%);fill-opacity:1;">
  <use xlink:href="#glyph8-2" x="154.905956" y="180.722431"/>
</g>
<g style="fill:rgb(0%,0%,0%);fill-opacity:1;">
  <use xlink:href="#glyph12-2" x="158.507737" y="176.279942"/>
</g>
<g style="fill:rgb(0%,0%,0%);fill-opacity:1;">
  <use xlink:href="#glyph13-1" x="172.997637" y="184.328101"/>
  <use xlink:href="#glyph13-2" x="180.171365" y="184.328101"/>
  <use xlink:href="#glyph13-3" x="185.695731" y="184.328101"/>
  <use xlink:href="#glyph13-4" x="190.107276" y="184.328101"/>
  <use xlink:href="#glyph13-3" x="194.002153" y="184.328101"/>
</g>
<g style="fill:rgb(0%,0%,0%);fill-opacity:1;">
  <use xlink:href="#glyph7-3" x="201.725316" y="184.328101"/>
</g>
<g style="fill:rgb(0%,0%,0%);fill-opacity:1;">
  <use xlink:href="#glyph8-1" x="206.977347" y="180.722441"/>
  <use xlink:href="#glyph8-4" x="210.079338" y="180.722441"/>
  <use xlink:href="#glyph8-2" x="214.036812" y="180.722441"/>
</g>
<g style="fill:rgb(0%,0%,0%);fill-opacity:1;">
  <use xlink:href="#glyph10-1" x="220.404606" y="184.328101"/>
</g>
<g style="fill:rgb(0%,0%,0%);fill-opacity:1;">
  <use xlink:href="#glyph7-6" x="230.892472" y="184.328101"/>
</g>
</g>
</svg>
